<svg width="140" height="140" viewBox="0 0 140 140" fill="none" xmlns="http://www.w3.org/2000/svg">
<path d="M68.1261 75.0368C69.1611 75.0368 70.1066 74.6472 70.826 74.0074L75.8149 76.896C76.0181 77.0138 76.2398 77.0695 76.4588 77.0695C76.9047 77.0695 77.3384 76.8375 77.5774 76.4225C77.9336 75.8037 77.7222 75.0124 77.1052 74.6551L72.1191 71.7682C72.1728 71.5039 72.2012 71.2303 72.2012 70.9503C72.2012 69.149 71.0327 67.6175 69.4164 67.0748V58.0909C69.4164 57.3764 68.8387 56.7971 68.1263 56.7971C67.4138 56.7971 66.8362 57.3764 66.8362 58.0909V67.0748C65.2198 67.6173 64.0513 69.149 64.0513 70.9503C64.0512 73.2037 65.8791 75.0368 68.1261 75.0368ZM68.1261 69.4511C68.9503 69.4511 69.6208 70.1236 69.6208 70.9502C69.6208 71.7768 68.9503 72.4492 68.1261 72.4492C67.3019 72.4492 66.6314 71.7768 66.6314 70.9502C66.6314 70.1236 67.3019 69.4511 68.1261 69.4511ZM68.1261 92.4627C79.954 92.4627 89.5769 82.8123 89.5769 70.9502C89.5769 59.0881 79.954 49.4378 68.1261 49.4378C56.2982 49.4378 46.6753 59.0883 46.6753 70.9503C46.6753 82.8124 56.2982 92.4627 68.1261 92.4627ZM57.5986 55.2513L58.1585 56.2239C58.3975 56.6389 58.8311 56.871 59.277 56.871C59.4958 56.871 59.7177 56.8151 59.9209 56.6975C60.5379 56.3402 60.7493 55.5489 60.3931 54.9301L59.8316 53.9546C61.9712 52.9 64.3377 52.2405 66.8362 52.0704V53.1986C66.8362 53.9131 67.4138 54.4924 68.1263 54.4924C68.8387 54.4924 69.4164 53.9131 69.4164 53.1986V52.0704C71.9148 52.2403 74.2812 52.9 76.421 53.9546L75.8594 54.9301C75.5032 55.5491 75.7146 56.3402 76.3316 56.6975C76.5348 56.8152 76.7565 56.871 76.9755 56.871C77.4214 56.871 77.8551 56.6389 78.094 56.2239L78.6539 55.2513C80.6741 56.6182 82.4173 58.3665 83.7803 60.3924L82.8105 60.9539C82.1935 61.3112 81.9821 62.1025 82.3383 62.7213C82.5773 63.1363 83.0109 63.3683 83.4568 63.3683C83.6757 63.3683 83.8975 63.3124 84.1007 63.1948L85.0733 62.6317C86.1249 64.7774 86.7825 67.1508 86.952 69.6564H85.8271C85.1146 69.6564 84.537 70.2357 84.537 70.9502C84.537 71.6647 85.1146 72.244 85.8271 72.244H86.952C86.7825 74.7496 86.1247 77.1228 85.0733 79.2687L84.1007 78.7056C83.4836 78.3483 82.6945 78.5602 82.3385 79.1791C81.9822 79.798 82.1937 80.5892 82.8106 80.9464L83.7805 81.5079C82.4175 83.5339 80.6742 85.2823 78.6541 86.649L78.0942 85.6764C77.738 85.0576 76.9489 84.8458 76.3319 85.2029C75.7149 85.5601 75.5035 86.3515 75.8598 86.9702L76.4213 87.9457C74.2816 89.0004 71.9151 89.6599 69.4167 89.83V88.7018C69.4167 87.9873 68.839 87.408 68.1266 87.408C67.4141 87.408 66.8365 87.9873 66.8365 88.7018V89.83C64.3381 89.66 61.9717 89.0004 59.8319 87.9457L60.3934 86.9702C60.7497 86.3513 60.5382 85.5601 59.9212 85.2029C59.3039 84.8456 58.515 85.0576 58.159 85.6764L57.5991 86.649C55.5789 85.2821 53.8355 83.5339 52.4727 81.5078L53.4424 80.9463C54.0594 80.589 54.2708 79.7977 53.9146 79.1789C53.5583 78.5602 52.7693 78.3483 52.1523 78.7054L51.1797 79.2685C50.1281 77.1228 49.4705 74.7496 49.301 72.244H50.426C51.1384 72.244 51.7161 71.6647 51.7161 70.9502C51.7161 70.2357 51.1384 69.6564 50.426 69.6564H49.301C49.4705 67.1508 50.1283 64.7776 51.1797 62.6318L52.1523 63.195C52.3555 63.3127 52.5772 63.3685 52.7962 63.3685C53.2421 63.3685 53.6757 63.1364 53.9147 62.7214C54.2709 62.1025 54.0595 61.3113 53.4425 60.9541L52.4729 60.3926C53.835 58.3665 55.5785 56.6182 57.5986 55.2513ZM41.0341 70.9502C41.0341 85.9318 53.1874 98.12 68.1261 98.12C83.0648 98.12 95.2182 85.9318 95.2182 70.9502C95.2182 55.9686 83.0648 43.7803 68.1261 43.7803C53.1874 43.7803 41.0341 55.9688 41.0341 70.9502ZM68.1261 46.3679C81.642 46.3679 92.638 57.3955 92.638 70.9502C92.638 84.5049 81.642 95.5324 68.1261 95.5324C54.6102 95.5324 43.6143 84.5049 43.6143 70.9502C43.6143 57.3955 54.6102 46.3679 68.1261 46.3679ZM98.6239 95.9841C96.9462 98.0355 95.0467 99.9306 92.9779 101.617C85.9046 107.382 77.1984 110.469 68.1737 110.469C67.1089 110.469 66.0411 110.426 64.9697 110.339C55.7389 109.594 47.1951 105.685 40.6362 99.2626L41.0505 102.995C41.1294 103.705 40.6191 104.345 39.911 104.424C39.8626 104.43 39.8144 104.432 39.7667 104.432C39.1181 104.432 38.5595 103.943 38.4861 103.281L37.6513 95.7585C37.6074 95.3633 37.7472 94.9698 38.0305 94.6913C38.3139 94.413 38.7098 94.2807 39.1023 94.3328L46.585 95.323C47.2914 95.4165 47.7885 96.0665 47.6953 96.775C47.6021 97.4835 46.9535 97.9823 46.2475 97.8885L42.4077 97.3803C55.6826 110.42 76.7157 111.537 91.3509 99.6086C93.2854 98.0319 95.0612 96.2605 96.629 94.3433C97.0809 93.7907 97.8937 93.7103 98.4447 94.1634C98.9954 94.6164 99.0757 95.4315 98.6239 95.9841ZM33.6723 84.0079C33.9243 84.6763 33.5883 85.423 32.9218 85.6756C32.7716 85.7325 32.6173 85.7595 32.4657 85.7595C31.9447 85.7595 31.454 85.4408 31.2588 84.9229C28.3569 77.2253 27.9247 68.928 30.009 60.9279C32.1366 52.7621 36.7237 45.6235 43.2743 40.2843C47.3802 36.9377 52.1299 34.4499 57.1746 32.983L54.3182 32.0565C53.6402 31.8366 53.2685 31.1072 53.4877 30.4273C53.707 29.7474 54.4343 29.3745 55.1122 29.5944L62.2936 31.9236C62.6709 32.046 62.9712 32.3357 63.1078 32.7091C63.2444 33.0825 63.202 33.4981 62.9931 33.8361L59.0172 40.2699C58.7731 40.665 58.3512 40.8824 57.9193 40.8824C57.6874 40.8824 57.4526 40.8196 57.2409 40.6881C56.6354 40.3116 56.4486 39.5142 56.824 38.9069L59.1602 35.1265C53.9755 36.4323 49.082 38.8852 44.9018 42.2923C32.5683 52.3448 28.0555 69.1091 33.6723 84.0079ZM110.75 80.9186L104.615 85.3266C104.393 85.4857 104.13 85.5687 103.863 85.5687C103.742 85.5687 103.62 85.5516 103.501 85.5166C103.12 85.4049 102.812 85.1238 102.665 84.7544L99.8683 77.724C99.6043 77.0603 99.9267 76.3078 100.589 76.0429C101.25 75.778 102.001 76.1015 102.265 76.7652L103.72 80.4224C106.747 68.9985 104.195 56.9048 96.7024 47.6593C91.012 40.6377 82.9769 35.9675 74.0773 34.5092C73.3742 34.3939 72.8972 33.7289 73.0122 33.0236C73.127 32.3185 73.79 31.8392 74.4934 31.9554C84.017 33.5159 92.6154 38.5134 98.7048 46.0272C102.959 51.2769 105.811 57.5545 106.954 64.1813C107.914 69.7524 107.663 75.5074 106.24 80.9762L109.248 78.8152C109.827 78.3993 110.633 78.5327 111.048 79.1136C111.463 79.6942 111.329 80.5023 110.75 80.9186Z" fill="white"/>
</svg>
