<svg width="140" height="140" viewBox="0 0 140 140" fill="none" xmlns="http://www.w3.org/2000/svg">
<path d="M113.75 63.1148C113.749 62.6913 113.523 62.3002 113.156 62.0894L107.145 58.6329L113.159 55.1578C113.525 54.9459 113.751 54.5544 113.75 54.1309C113.749 53.7074 113.523 53.3166 113.156 53.1058C102.91 47.2163 92.6634 41.3244 82.4178 35.4309C82.0521 35.2205 81.6033 35.221 81.2378 35.4321L26.842 66.8756C26.4756 67.0871 26.25 67.4788 26.2509 67.9019C26.2517 68.3254 26.4771 68.7162 26.8444 68.9273C28.8477 70.0799 30.8514 71.231 32.8549 72.3834L26.8411 75.8592C26.4747 76.0707 26.2491 76.4623 26.25 76.8855C26.2509 77.3089 26.4771 77.7001 26.8435 77.9109L32.8544 81.3671L26.8411 84.8424C26.4747 85.0544 26.2491 85.4459 26.25 85.869C26.2509 86.2925 26.4771 86.6836 26.8435 86.8944L57.5822 104.569C57.7647 104.674 57.9679 104.727 58.1711 104.727C58.3751 104.727 58.579 104.674 58.7622 104.568L113.159 73.1246C113.525 72.9131 113.751 72.5215 113.75 72.098C113.749 71.6749 113.523 71.2837 113.156 71.0729L107.145 67.6168L113.159 64.1411C113.525 63.9294 113.751 63.5379 113.75 63.1148ZM81.8304 37.8236C91.2852 43.2623 100.741 48.6994 110.197 54.135L89.7232 65.9667C89.0719 65.5975 87.877 64.9134 86.3232 64.0215L97.9626 57.2973C98.242 57.1355 98.4436 56.8665 98.5199 56.5523C98.5968 56.2387 98.5414 55.9068 98.3674 55.6344C98.1172 55.242 97.75 54.4616 98.1056 53.6443C98.3457 53.0913 98.1318 52.4457 97.6098 52.1456L85.0264 44.9049C84.7215 44.7298 84.3544 44.699 84.0241 44.8224C82.4076 45.4267 80.2013 45.3311 78.4053 44.58C78.0666 44.439 77.6778 44.4621 77.3584 44.6474L65.0414 51.7681C64.588 51.5067 64.1527 51.2559 63.7511 51.0244L61.3666 49.6501L81.8304 37.8236ZM95.8357 55.7921L83.9504 62.6585C79.1073 59.8745 72.436 56.0303 67.4104 53.1337L78.0538 46.9797C80.0898 47.6921 82.3924 47.7816 84.3063 47.2216L95.6394 53.7428C95.5392 54.4166 95.6062 55.1142 95.8357 55.7921ZM50.2542 56.0726C51.3965 56.7296 52.539 57.3859 53.6814 58.043L42.0619 64.7634C41.7824 64.9249 41.5808 65.1939 41.5046 65.5078C41.4277 65.822 41.483 66.1534 41.657 66.4258C41.9072 66.8181 42.2745 67.5985 41.9195 68.415C41.6794 68.968 41.8934 69.6136 42.4153 69.9137L54.9948 77.1431C55.2988 77.3185 55.6676 77.349 55.9971 77.2256C57.6121 76.6218 59.8184 76.7166 61.6167 77.4669C61.7622 77.5281 61.917 77.5582 62.0717 77.5582C62.2764 77.5582 62.4812 77.505 62.6628 77.3995L64.6012 76.2787C68.0589 74.2794 71.5162 72.2804 74.9745 70.2833L78.6246 72.381L58.1692 84.209C48.7129 78.7741 39.2557 73.337 29.8016 67.898L50.2542 56.0726ZM44.1889 66.2675L56.0521 59.406C61.0559 62.2831 66.0598 65.1602 71.0638 68.036L72.6031 68.9206C69.5411 70.6892 66.4798 72.4585 63.4189 74.2284L61.9678 75.0677C59.9302 74.3552 57.6292 74.2676 55.7146 74.8268L44.3861 68.3163C44.4854 67.6429 44.4184 66.9453 44.1889 66.2675ZM35.2256 73.7466C42.6774 78.0325 50.1291 82.3183 57.5822 86.6017C57.7647 86.7066 57.9679 86.7589 58.1711 86.7589C58.3751 86.7589 58.5799 86.7061 58.7622 86.6001L79.8152 74.4265L79.8302 80.6726L58.1696 93.1929L29.802 76.8815L35.2256 73.7466ZM58.1696 102.177L29.802 85.8653L35.2261 82.7308L57.5822 95.5858C57.7647 95.6906 57.9679 95.743 58.1711 95.743C58.3751 95.743 58.579 95.6901 58.7622 95.5842L79.8369 83.4024L79.8521 89.6439L58.1696 102.177ZM82.2138 88.2788L82.1753 72.3743C82.1746 71.9512 81.9482 71.5608 81.5818 71.3505C81.5818 71.3505 59.1603 58.4649 52.6215 54.7037L59.0001 51.018C59.0001 51.018 86.5848 66.9189 88.5539 67.9941L88.5871 84.5941L82.2138 88.2788ZM110.198 72.1023L90.9492 83.2293L90.9368 76.9862L104.778 68.9858L110.198 72.1023ZM90.9311 74.2556L90.9186 68.0102L104.777 60.0014L110.198 63.1186L90.9311 74.2556ZM54.7307 70.1897C54.4043 69.6235 54.5976 68.8994 55.1635 68.5728L60.3436 65.5782C60.9079 65.2507 61.6323 65.4444 61.9585 66.0114C62.285 66.5776 62.0917 67.3017 61.5258 67.6283L56.3457 70.6229C56.1595 70.7309 55.9563 70.7817 55.7553 70.7817C55.3473 70.7816 54.9493 70.5697 54.7307 70.1897ZM85.952 52.1406C86.2784 52.7068 86.0851 53.4309 85.5193 53.7575L80.9635 56.3912C80.7772 56.4991 80.574 56.5499 80.373 56.5499C79.9651 56.5499 79.5671 56.3379 79.3485 55.9581C79.0221 55.3919 79.2154 54.6678 79.7812 54.3412L84.337 51.7076C84.902 51.3804 85.6256 51.5734 85.952 52.1406Z" fill="white"/>
</svg>
