<svg width="140" height="140" viewBox="0 0 140 140" fill="none" xmlns="http://www.w3.org/2000/svg">
<path d="M84.4922 77.2356C84.4909 78.2905 84.8026 79.322 85.3877 80.1996C85.9729 81.0773 86.8052 81.7617 87.7793 82.1663C88.7535 82.5708 89.8258 82.6773 90.8606 82.4723C91.8953 82.2673 92.846 81.7599 93.5923 81.0145C94.3386 80.269 94.8471 79.319 95.0533 78.2845C95.2596 77.25 95.1544 76.1776 94.751 75.2029C94.3476 74.2283 93.6642 73.3951 92.7872 72.809C91.9102 72.2228 90.8791 71.9099 89.8242 71.9099C88.4117 71.9116 87.0574 72.473 86.058 73.4712C85.0586 74.4695 84.4955 75.8231 84.4922 77.2356ZM89.8242 74.7289C90.3201 74.7285 90.8049 74.8751 91.2174 75.1503C91.63 75.4255 91.9516 75.8169 92.1416 76.2749C92.3317 76.7329 92.3816 77.237 92.2851 77.7234C92.1886 78.2097 91.9501 78.6566 91.5996 79.0074C91.2491 79.3582 90.8025 79.5971 90.3161 79.694C89.8298 79.7909 89.3257 79.7414 88.8675 79.5517C88.4094 79.362 88.0178 79.0408 87.7422 78.6285C87.4667 78.2162 87.3196 77.7315 87.3196 77.2356C87.3202 76.5713 87.5842 75.9344 88.0537 75.4645C88.5232 74.9945 89.1599 74.73 89.8242 74.7289Z" fill="white"/>
<path d="M74.9198 83.1208C73.676 83.1213 72.4603 83.4905 71.4263 84.1818C70.3924 84.8731 69.5866 85.8554 69.1109 87.0046C68.6353 88.1538 68.511 89.4183 68.7539 90.6381C68.9968 91.8579 69.596 92.9784 70.4756 93.8577C71.3552 94.737 72.4758 95.3358 73.6957 95.5783C74.9156 95.8208 76.18 95.6961 77.3291 95.22C78.4781 94.744 79.4602 93.9379 80.1512 92.9037C80.8421 91.8695 81.2109 90.6537 81.2109 89.4099C81.2093 87.7421 80.5459 86.1431 79.3663 84.964C78.1868 83.7848 76.5876 83.122 74.9198 83.1208ZM74.9198 92.9117C74.2276 92.9117 73.551 92.7065 72.9755 92.3219C72.3999 91.9373 71.9514 91.3908 71.6865 90.7513C71.4216 90.1118 71.3523 89.4081 71.4873 88.7292C71.6224 88.0504 71.9557 87.4268 72.4451 86.9373C72.9346 86.4479 73.5582 86.1146 74.237 85.9795C74.9159 85.8445 75.6196 85.9138 76.2591 86.1787C76.8986 86.4436 77.4451 86.8921 77.8297 87.4677C78.2142 88.0432 78.4195 88.7198 78.4195 89.412C78.4179 90.3395 78.0485 91.2285 77.3925 91.8841C76.7365 92.5397 75.8473 92.9085 74.9198 92.9096V92.9117Z" fill="white"/>
<path d="M85.7205 56.5974C87.1541 56.5978 88.5556 56.173 89.7477 55.3767C90.9398 54.5803 91.8689 53.4483 92.4174 52.1238C92.9659 50.7993 93.1092 49.3418 92.8292 47.9359C92.5491 46.5299 91.8583 45.2386 90.8442 44.2253C89.83 43.2121 88.5381 42.5224 87.1319 42.2436C85.7257 41.9648 84.2683 42.1094 82.9443 42.659C81.6203 43.2087 80.4891 44.1388 79.6938 45.3315C78.8985 46.5243 78.4749 47.9262 78.4766 49.3598C78.4805 51.2792 79.2451 53.1188 80.603 54.4755C81.9608 55.8321 83.8011 56.5952 85.7205 56.5974ZM85.7205 44.9407C86.5931 44.9402 87.4463 45.1985 88.1721 45.6829C88.8979 46.1672 89.4638 46.8559 89.7983 47.6618C90.1328 48.4677 90.2209 49.3547 90.0514 50.2107C89.8819 51.0667 89.4624 51.8531 88.8459 52.4708C88.2295 53.0884 87.4438 53.5093 86.5882 53.6805C85.7326 53.8516 84.8454 53.7653 84.0388 53.4323C83.2323 53.0994 82.5425 52.5348 82.0568 51.8099C81.5711 51.085 81.3111 50.2324 81.3099 49.3598C81.3093 48.189 81.7736 47.066 82.6006 46.2374C83.4276 45.4087 84.5498 44.9423 85.7205 44.9407Z" fill="white"/>
<path d="M64.2578 41.0115C65.3394 41.0115 66.3968 40.6907 67.2961 40.0898C68.1954 39.4889 68.8964 38.6348 69.3103 37.6355C69.7242 36.6362 69.8325 35.5367 69.6215 34.4758C69.4105 33.415 68.8896 32.4406 68.1248 31.6757C67.36 30.9109 66.3855 30.3901 65.3247 30.1791C64.2639 29.968 63.1643 30.0763 62.165 30.4903C61.1657 30.9042 60.3116 31.6051 59.7107 32.5045C59.1098 33.4038 58.7891 34.4611 58.7891 35.5427C58.7891 36.9931 59.3652 38.3841 60.3908 39.4097C61.4164 40.4353 62.8074 41.0115 64.2578 41.0115ZM64.2578 32.903C64.7811 32.903 65.2927 33.0582 65.7279 33.3489C66.163 33.6397 66.5022 34.0529 66.7024 34.5364C66.9027 35.0199 66.9551 35.552 66.853 36.0653C66.7509 36.5785 66.4989 37.05 66.1288 37.4201C65.7588 37.7901 65.2873 38.0421 64.774 38.1442C64.2607 38.2463 63.7287 38.1939 63.2452 37.9937C62.7617 37.7934 62.3485 37.4542 62.0577 37.0191C61.767 36.584 61.6118 36.0724 61.6118 35.549C61.6123 34.8474 61.8913 34.1747 62.3874 33.6786C62.8835 33.1825 63.5562 32.9036 64.2578 32.903Z" fill="white"/>
<path d="M50.5859 55.5037C51.6135 55.5037 52.6179 55.199 53.4723 54.6281C54.3267 54.0572 54.9926 53.2458 55.3858 52.2965C55.779 51.3472 55.8819 50.3026 55.6814 49.2948C55.481 48.287 54.9862 47.3613 54.2596 46.6347C53.533 45.9081 52.6073 45.4133 51.5995 45.2129C50.5917 45.0124 49.5471 45.1153 48.5978 45.5085C47.6485 45.9017 46.8371 46.5676 46.2662 47.422C45.6953 48.2764 45.3906 49.2808 45.3906 50.3084C45.3923 51.6857 45.9402 53.0062 46.9141 53.9801C47.8881 54.9541 49.2086 55.502 50.5859 55.5037ZM50.5859 47.9377C51.057 47.9373 51.5176 48.0766 51.9094 48.338C52.3013 48.5993 52.6068 48.9711 52.7874 49.4062C52.9679 49.8412 53.0154 50.3201 52.9237 50.7821C52.8321 51.2442 52.6055 51.6686 52.2725 52.0019C51.9396 52.3351 51.5153 52.5621 51.0534 52.6541C50.5914 52.7462 50.1125 52.6992 49.6773 52.519C49.2421 52.3388 48.87 52.0336 48.6083 51.642C48.3466 51.2504 48.2069 50.7899 48.2069 50.3189C48.2057 50.0055 48.2664 49.6951 48.3855 49.4052C48.5045 49.1154 48.6795 48.8518 48.9004 48.6297C49.1214 48.4075 49.384 48.2311 49.6732 48.1106C49.9625 47.99 50.2726 47.9277 50.5859 47.9272V47.9377Z" fill="white"/>
<path d="M108.511 59.0584H84.6775C84.4188 59.0581 84.165 59.129 83.9438 59.2631C83.7227 59.3973 83.5427 59.5896 83.4236 59.8191C83.3045 60.0485 83.2509 60.3062 83.2686 60.5641C83.2862 60.822 83.3745 61.07 83.5238 61.2811C84.0106 61.9675 84.299 62.7744 84.3574 63.6136C84.4159 64.4528 84.2423 65.2918 83.8555 66.039C83.4687 66.7862 82.8836 67.4127 82.1642 67.8501C81.4449 68.2875 80.619 68.5188 79.7769 68.5188C78.9348 68.5188 78.1089 68.2875 77.3896 67.8501C76.6703 67.4127 76.0852 66.7862 75.6984 66.039C75.3116 65.2918 75.1379 64.4528 75.1964 63.6136C75.2549 62.7744 75.5433 61.9675 76.03 61.2811C76.1794 61.0698 76.2678 60.8216 76.2853 60.5636C76.3029 60.3055 76.2491 60.0476 76.1298 59.8181C76.0104 59.5886 75.8301 59.3963 75.6087 59.2623C75.3872 59.1283 75.1331 59.0577 74.8742 59.0584H57.0541C56.8106 59.0585 56.5713 59.1215 56.3593 59.2412C56.1474 59.3609 55.97 59.5333 55.8444 59.7417C55.7187 59.9501 55.6491 60.1873 55.6423 60.4304C55.6355 60.6736 55.6917 60.9143 55.8055 61.1294C56.1923 61.8206 56.3954 62.5992 56.3954 63.3911C56.3954 64.1829 56.1923 64.9616 55.8055 65.6528C55.6935 65.8613 55.6359 66.0946 55.638 66.3312C55.6401 66.5678 55.7017 66.8001 55.8173 67.0066C55.9328 67.2131 56.0986 67.3873 56.2993 67.513C56.4999 67.6387 56.729 67.7119 56.9655 67.7259C58.8627 67.8418 60.6634 68.6017 62.0691 69.8798C63.4748 71.1578 64.4011 72.8774 64.6945 74.7533C64.9879 76.6293 64.6307 78.5491 63.6822 80.1946C62.7338 81.84 61.2509 83.1123 59.4794 83.8007C57.7079 84.489 55.7542 84.552 53.9419 83.9792C52.1297 83.4065 50.5677 82.2323 49.515 80.6514C48.4623 79.0705 47.9819 77.1777 48.1536 75.2867C48.3252 73.3958 49.1385 71.6201 50.4588 70.2542C50.623 70.0837 50.7416 69.8747 50.8037 69.6464C50.8658 69.4182 50.8694 69.178 50.8141 68.9479C50.7589 68.7179 50.6465 68.5055 50.4875 68.3302C50.3285 68.155 50.1278 68.0225 49.9041 67.945C48.9576 67.6123 48.1373 66.9954 47.5555 66.1788C46.9736 65.3622 46.6587 64.386 46.6539 63.3837C46.6609 62.5962 46.8623 61.8226 47.2402 61.1315C47.3546 60.9165 47.4113 60.6756 47.4048 60.4322C47.3983 60.1889 47.3288 59.9513 47.203 59.7428C47.0773 59.5342 46.8996 59.3618 46.6873 59.2422C46.475 59.1226 46.2353 59.06 45.9916 59.0605H31.4891C31.3038 59.0602 31.1202 59.0964 30.9488 59.1672C30.7775 59.2379 30.6219 59.3417 30.4908 59.4727C30.3597 59.6036 30.2558 59.7591 30.185 59.9302C30.1142 60.1014 30.0778 60.2848 30.0781 60.4699V108.506C30.0778 108.691 30.1141 108.875 30.1849 109.046C30.2557 109.217 30.3596 109.373 30.4907 109.504C30.6217 109.635 30.7774 109.739 30.9487 109.81C31.12 109.881 31.3037 109.918 31.4891 109.918H108.511C108.696 109.918 108.88 109.881 109.051 109.81C109.223 109.739 109.378 109.635 109.509 109.504C109.64 109.373 109.744 109.217 109.815 109.046C109.886 108.875 109.922 108.691 109.922 108.506V60.4699C109.922 60.2846 109.886 60.101 109.816 59.9296C109.745 59.7582 109.641 59.6025 109.51 59.4713C109.379 59.3401 109.223 59.2361 109.052 59.1653C108.88 59.0944 108.696 59.0581 108.511 59.0584ZM107.098 107.095H32.9023V61.8794H43.9858C43.8823 62.3735 43.83 62.8769 43.8297 63.3816C43.8333 64.6387 44.1458 65.8756 44.7397 66.9839C45.3336 68.0922 46.1908 69.0379 47.236 69.738C45.9613 71.5863 45.2794 73.7782 45.2808 76.0227C45.2747 78.1241 45.8624 80.1845 46.9762 81.9672C48.09 83.7498 49.6847 85.1824 51.5772 86.1001C53.4696 87.0179 55.5828 87.3836 57.674 87.1552C59.7652 86.9269 61.7495 86.1137 63.3987 84.8092C65.0479 83.5047 66.2952 81.7618 66.9971 79.7808C67.699 77.7999 67.8271 75.6613 67.3666 73.6109C66.9062 71.5605 65.8758 69.6815 64.3941 68.1899C62.9123 66.6982 61.0393 65.6545 58.9903 65.1788C59.2635 64.0984 59.2866 62.97 59.0578 61.8794H72.6575C72.4668 62.5403 72.3703 63.2247 72.3707 63.9125C72.4035 65.8553 73.1991 67.7073 74.586 69.0696C75.973 70.4319 77.8402 71.1953 79.7854 71.1953C81.7305 71.1953 83.5977 70.4319 84.9847 69.0696C86.3717 67.7073 87.1673 65.8553 87.2001 63.9125C87.2005 63.2247 87.1039 62.5403 86.9132 61.8794H107.098V107.095Z" fill="white"/>
</svg>
