<svg width="35" height="35" viewBox="0 0 35 35" fill="none" xmlns="http://www.w3.org/2000/svg">
<g clip-path="url(#clip0_122_2068)">
<path d="M17.4983 17.5C18.6521 17.5 19.7799 17.1579 20.7392 16.5169C21.6985 15.8759 22.4461 14.9649 22.8876 13.899C23.3292 12.8331 23.4447 11.6602 23.2196 10.5286C22.9945 9.39708 22.4389 8.35768 21.6231 7.54188C20.8073 6.72607 19.7679 6.1705 18.6364 5.94542C17.5048 5.72034 16.3319 5.83586 15.266 6.27737C14.2001 6.71888 13.2891 7.46655 12.6481 8.42584C12.0071 9.38513 11.665 10.5129 11.665 11.6667C11.665 13.2138 12.2796 14.6975 13.3736 15.7915C14.4675 16.8854 15.9512 17.5 17.4983 17.5ZM17.4983 8.75C18.0752 8.75 18.6391 8.92106 19.1188 9.24155C19.5984 9.56203 19.9722 10.0176 20.193 10.5505C20.4137 11.0835 20.4715 11.6699 20.359 12.2357C20.2464 12.8015 19.9686 13.3212 19.5607 13.7291C19.1528 14.137 18.6331 14.4148 18.0674 14.5273C17.5016 14.6398 16.9151 14.5821 16.3822 14.3613C15.8492 14.1406 15.3937 13.7667 15.0732 13.2871C14.7527 12.8074 14.5817 12.2435 14.5817 11.6667C14.5817 10.8931 14.889 10.1513 15.4359 9.60427C15.9829 9.05729 16.7248 8.75 17.4983 8.75ZM30.1275 13.354L29.079 13.0054C29.2677 11.372 29.1089 9.71709 28.6132 8.14929C28.1174 6.58149 27.2959 5.1362 26.2024 3.90817C25.1089 2.68015 23.7682 1.69715 22.2682 1.02362C20.7681 0.350098 19.1427 0.00126508 17.4983 0C15.8326 0.00064308 14.1863 0.358304 12.6704 1.04888C11.1545 1.73946 9.80427 2.74692 8.7106 4.00338C7.61694 5.25984 6.80527 6.73611 6.33029 8.33273C5.85532 9.92934 5.72806 11.6092 5.95709 13.2592C4.56152 13.5194 3.27102 14.1778 2.24126 15.155C1.52839 15.8328 0.961672 16.6492 0.575956 17.554C0.19024 18.4589 -0.00632651 19.433 -0.00165826 20.4167V26.3594C0.00140656 27.9363 0.514288 29.47 1.46045 30.7315C2.40662 31.9931 3.73534 32.9149 5.24834 33.3594L9.43376 34.6719C10.1368 34.8907 10.869 35.0013 11.6052 35C12.2731 34.9991 12.9378 34.9079 13.5813 34.7287L22.0104 32.235C22.7613 32.03 23.5535 32.03 24.3044 32.235L27.7854 33.4017C28.6434 33.6105 29.5375 33.6218 30.4005 33.4348C31.2634 33.2478 32.0727 32.8673 32.7672 32.3221C33.4617 31.7768 34.0234 31.081 34.4099 30.2871C34.7963 29.4932 34.9976 28.6219 34.9983 27.739V20.23C34.995 18.7212 34.5252 17.2504 33.6531 16.0191C32.7811 14.7879 31.5497 13.8564 30.1275 13.3525V13.354ZM11.3121 5.48625C12.1233 4.67176 13.0874 4.02547 14.149 3.58448C15.2106 3.1435 16.3488 2.91649 17.4983 2.91649C18.6479 2.91649 19.7861 3.1435 20.8477 3.58448C21.9093 4.02547 22.8734 4.67176 23.6846 5.48625C25.3211 7.13292 26.2409 9.35932 26.2439 11.6809C26.2469 14.0024 25.3329 16.2312 23.7006 17.8821L18.5192 22.9206C18.2487 23.1858 17.8851 23.3343 17.5064 23.3343C17.1276 23.3343 16.764 23.1858 16.4936 22.9206L11.3121 17.904C9.67215 16.2537 8.75171 14.0216 8.75171 11.6951C8.75171 9.36857 9.67215 7.13652 11.3121 5.48625ZM32.0817 27.739C32.0826 28.1807 31.9827 28.6167 31.7896 29.014C31.5965 29.4113 31.3154 29.7593 30.9675 30.0315C30.6388 30.2957 30.256 30.4843 29.8461 30.5839C29.4363 30.6835 29.0096 30.6915 28.5963 30.6075L25.1765 29.4583C23.8829 29.0867 22.512 29.0786 21.2142 29.435L12.7792 31.9258C11.9687 32.1494 11.1111 32.1347 10.3088 31.8835L6.08834 30.571C5.17492 30.3069 4.37182 29.7536 3.79963 28.9942C3.22744 28.2348 2.91703 27.3102 2.91501 26.3594V20.4167C2.91173 19.8272 3.02906 19.2433 3.25979 18.7008C3.49052 18.1583 3.82977 17.6688 4.25668 17.2623C4.92497 16.6254 5.77628 16.2143 6.69063 16.0869C7.27849 17.544 8.1539 18.8678 9.26459 19.9792L14.4665 25.0148C15.2795 25.8109 16.3721 26.2568 17.51 26.2568C18.6479 26.2568 19.7405 25.8109 20.5536 25.0148L25.7496 19.9646C26.913 18.7965 27.8143 17.3941 28.3936 15.8506L29.1767 16.1102C30.026 16.4145 30.7607 16.9735 31.2806 17.7108C31.8005 18.4481 32.0802 19.3278 32.0817 20.23V27.739Z" fill="#FFFF00"/>
</g>
<defs>
<clipPath id="clip0_122_2068">
<rect width="35" height="35" fill="white"/>
</clipPath>
</defs>
</svg>
