<svg width="35" height="35" viewBox="0 0 35 35" fill="none" xmlns="http://www.w3.org/2000/svg">
<g clip-path="url(#clip0_122_2064)">
<path d="M18.9582 1.45871C18.9582 1.07194 19.1118 0.701002 19.3853 0.427512C19.6588 0.154021 20.0297 0.000375787 20.4165 0.000375787C24.2829 0.00462187 27.9898 1.54244 30.7238 4.27643C33.4577 7.01041 34.9956 10.7173 34.9998 14.5837C34.9998 14.9705 34.8462 15.3414 34.5727 15.6149C34.2992 15.8884 33.9282 16.042 33.5415 16.042C33.1547 16.042 32.7838 15.8884 32.5103 15.6149C32.2368 15.3414 32.0831 14.9705 32.0831 14.5837C32.0797 11.4906 30.8494 8.52514 28.6622 6.33797C26.4751 4.15079 23.5096 2.92052 20.4165 2.91704C20.0297 2.91704 19.6588 2.7634 19.3853 2.48991C19.1118 2.21642 18.9582 1.84548 18.9582 1.45871ZM20.4165 8.75038C21.9636 8.75038 23.4473 9.36496 24.5413 10.4589C25.6352 11.5529 26.2498 13.0366 26.2498 14.5837C26.2498 14.9705 26.4035 15.3414 26.677 15.6149C26.9504 15.8884 27.3214 16.042 27.7082 16.042C28.0949 16.042 28.4659 15.8884 28.7393 15.6149C29.0128 15.3414 29.1665 14.9705 29.1665 14.5837C29.1642 12.2638 28.2416 10.0395 26.6011 8.39908C24.9607 6.75864 22.7364 5.83603 20.4165 5.83371C20.0297 5.83371 19.6588 5.98736 19.3853 6.26085C19.1118 6.53434 18.9582 6.90527 18.9582 7.29204C18.9582 7.67882 19.1118 8.04975 19.3853 8.32324C19.6588 8.59673 20.0297 8.75038 20.4165 8.75038ZM33.6771 24.4114C34.5222 25.2589 34.9968 26.4069 34.9968 27.6037C34.9968 28.8005 34.5222 29.9485 33.6771 30.796L32.35 32.3258C20.4063 43.7606 -8.65826 14.7033 2.60006 2.72163L4.27714 1.26329C5.12555 0.44178 6.26329 -0.0126776 7.4442 -0.0017609C8.62512 0.00915584 9.75426 0.484569 10.5873 1.32163C10.6325 1.36683 13.3348 4.87704 13.3348 4.87704C14.1367 5.71942 14.583 6.8384 14.5811 8.00138C14.5792 9.16436 14.1292 10.2819 13.3246 11.1216L11.6359 13.245C12.5704 15.5157 13.9445 17.5795 15.6791 19.3176C17.4137 21.0557 19.4747 22.4339 21.7436 23.3731L23.88 21.6741C24.7199 20.8702 25.8372 20.4207 26.9998 20.4191C28.1625 20.4174 29.281 20.8638 30.1231 21.6654C30.1231 21.6654 33.6319 24.3662 33.6771 24.4114ZM31.6704 26.5318C31.6704 26.5318 28.1806 23.847 28.1354 23.8018C27.835 23.5039 27.429 23.3368 27.006 23.3368C26.5829 23.3368 26.1769 23.5039 25.8765 23.8018C25.8371 23.8427 22.8957 26.1862 22.8957 26.1862C22.6974 26.344 22.4615 26.4474 22.2112 26.4863C21.9608 26.5251 21.7047 26.4981 21.468 26.4079C18.5286 25.3135 15.8588 23.6002 13.6394 21.384C11.4199 19.1679 9.70272 16.5006 8.60401 13.5629C8.50659 13.3229 8.47483 13.0613 8.51199 12.805C8.54916 12.5487 8.6539 12.307 8.81547 12.1045C8.81547 12.1045 11.159 9.16163 11.1984 9.12371C11.4963 8.82327 11.6634 8.41732 11.6634 7.99423C11.6634 7.57115 11.4963 7.16519 11.1984 6.86475C11.1532 6.821 8.46838 3.32829 8.46838 3.32829C8.16345 3.05487 7.76547 2.90843 7.35604 2.91901C6.9466 2.92958 6.55672 3.09636 6.2663 3.38517L4.58922 4.8435C-3.63869 14.7368 21.5482 38.5266 30.2179 30.3337L31.5465 28.8025C31.8578 28.5141 32.0448 28.116 32.0679 27.6922C32.0911 27.2685 31.9485 26.8524 31.6704 26.5318Z" fill="#FFFF00"/>
</g>
<defs>
<clipPath id="clip0_122_2064">
<rect width="35" height="35" fill="white"/>
</clipPath>
</defs>
</svg>
