<svg width="35" height="35" viewBox="0 0 35 35" fill="none" xmlns="http://www.w3.org/2000/svg">
<g clip-path="url(#clip0_122_2066)">
<path d="M17.5002 0C12.8604 0.00501824 8.41217 1.85037 5.13137 5.13117C1.85057 8.41197 0.00521614 12.8603 0.000197898 17.5C-0.183552 31.4606 16.2737 40.0006 27.5627 31.8165C27.7249 31.7085 27.8639 31.5692 27.9714 31.4067C28.0789 31.2442 28.1527 31.0618 28.1885 30.8703C28.2243 30.6788 28.2214 30.482 28.1799 30.2916C28.1384 30.1013 28.0592 29.9212 27.9469 29.7619C27.8346 29.6027 27.6916 29.4675 27.5262 29.3645C27.3609 29.2615 27.1765 29.1926 26.9841 29.162C26.7917 29.1314 26.5951 29.1396 26.4059 29.1863C26.2167 29.2329 26.0388 29.317 25.8827 29.4335C16.4794 36.2483 2.77103 29.1346 2.91686 17.5C3.71749 -1.84625 31.2858 -1.84187 32.0835 17.5V20.4167C32.0835 21.1902 31.7762 21.9321 31.2293 22.4791C30.6823 23.026 29.9404 23.3333 29.1669 23.3333C28.3933 23.3333 27.6515 23.026 27.1045 22.4791C26.5575 21.9321 26.2502 21.1902 26.2502 20.4167V17.5C25.8827 5.93688 9.11624 5.93833 8.7502 17.5C8.76717 19.2733 9.32107 20.9999 10.3389 22.4521C11.3567 23.9044 12.7907 25.0142 14.4518 25.6352C16.1129 26.2562 17.9232 26.3593 19.6441 25.931C21.365 25.5026 22.9157 24.5629 24.0919 23.2356C24.7245 24.3522 25.7077 25.2289 26.8891 25.7301C28.0705 26.2313 29.3842 26.3289 30.6267 26.0078C31.8691 25.6867 32.9711 24.9648 33.7618 23.954C34.5524 22.9432 34.9877 21.6999 35.0002 20.4167V17.5C34.9952 12.8603 33.1498 8.41197 29.869 5.13117C26.5882 1.85037 22.1399 0.00501824 17.5002 0V0ZM17.5002 23.3333C15.9531 23.3333 14.4694 22.7188 13.3754 21.6248C12.2814 20.5308 11.6669 19.0471 11.6669 17.5C11.6669 15.9529 12.2814 14.4692 13.3754 13.3752C14.4694 12.2812 15.9531 11.6667 17.5002 11.6667C19.0473 11.6667 20.531 12.2812 21.625 13.3752C22.719 14.4692 23.3335 15.9529 23.3335 17.5C23.3335 19.0471 22.719 20.5308 21.625 21.6248C20.531 22.7188 19.0473 23.3333 17.5002 23.3333Z" fill="#FFFF00"/>
</g>
<defs>
<clipPath id="clip0_122_2066">
<rect width="35" height="35" fill="white"/>
</clipPath>
</defs>
</svg>
