<svg width="140" height="140" viewBox="0 0 140 140" fill="none" xmlns="http://www.w3.org/2000/svg">
<path d="M66.0429 75.4237C66.0429 67.4238 59.5335 60.9144 51.5336 60.9144C43.5337 60.9144 37.0244 67.4238 37.0244 75.4237C37.0244 83.4236 43.5337 89.933 51.5336 89.933C59.5335 89.933 66.0429 83.4236 66.0429 75.4237ZM39.6624 75.4237C39.6624 68.8787 44.9886 63.5525 51.5336 63.5525C58.0787 63.5525 63.4049 68.8787 63.4049 75.4237C63.4049 81.9701 58.0787 87.295 51.5336 87.295C44.9886 87.295 39.6624 81.9701 39.6624 75.4237Z" fill="white"/>
<path d="M59.4478 70.1476C58.9327 69.6326 58.0977 69.6326 57.5827 70.1476L47.5765 80.1538L45.4845 78.0618C44.9695 77.5468 44.1345 77.5468 43.6194 78.0618C43.1044 78.5768 43.1044 79.4119 43.6194 79.9269L45.1317 81.4392C46.4819 82.7894 48.6711 82.7894 50.0213 81.4392L59.4478 72.0127C59.9628 71.4977 59.9628 70.6627 59.4478 70.1476Z" fill="white"/>
<path d="M102.976 49.8254V39.5339C102.976 36.7725 100.737 34.5339 97.9756 34.5339H97.4234C94.662 34.5339 92.4234 36.7725 92.4234 39.5339V48.0658C91.5555 47.9906 90.677 47.9286 89.7853 47.8798V44.81C89.7853 42.0486 87.5468 39.81 84.7853 39.81H84.2331C81.4717 39.81 79.2331 42.0486 79.2331 44.81V47.8785C78.3401 47.9286 77.4617 47.9906 76.5951 48.0645V34.2578C76.5951 31.4964 74.3565 29.2578 71.5951 29.2578H71.0429C68.2814 29.2578 66.0429 31.4964 66.0429 34.2578V49.8254C60.8129 51.2645 58.1287 53.214 58.1287 55.6383C58.1287 56.0723 58.225 56.4904 58.3965 56.8954C58.134 56.7991 57.8768 56.6936 57.609 56.6065L57.5662 56.4731C56.9024 54.4039 54.9782 53.0003 52.8051 53.0003H50.2619C48.0883 53.0003 46.1636 54.4046 45.5004 56.4746L45.4581 56.6065C44.4398 56.9336 43.4545 57.3399 42.518 57.8187L42.3998 57.7578C40.467 56.763 38.113 57.1309 36.576 58.668L34.7791 60.4649C33.2421 62.0019 32.8742 64.3559 33.869 66.2886L33.9298 66.4069C33.451 67.3434 33.0448 68.3287 32.7176 69.347L32.5818 69.3906C30.5132 70.0547 29.1101 71.9787 29.1101 74.1513V76.6954C29.1101 78.869 30.5145 80.7937 32.5845 81.4569L32.7163 81.4992C33.0448 82.5201 33.4497 83.5054 33.9285 84.4393L33.8678 84.5572C32.8729 86.4901 33.241 88.8443 34.7783 90.3813L38.6268 94.2291C38.9412 94.5434 39.4227 94.6186 39.818 94.4151L38.5401 99.5311C37.6635 103.041 41.1313 106.067 44.49 104.723C46.4826 107.38 50.6743 106.476 51.3944 103.234L51.5336 102.608L51.6728 103.234C52.3935 106.477 56.5856 107.381 58.5785 104.723L59.6679 105.159C62.5716 106.321 65.5695 103.704 64.8109 100.67C69.6781 102.221 76.7824 103.123 84.5092 103.123C97.619 103.123 110.89 100.405 110.89 95.2092V55.6383C110.89 53.214 108.206 51.2645 102.976 49.8254ZM108.252 55.6383C108.252 57.4283 99.8706 60.9145 84.5092 60.9145C77.7861 60.9145 71.3427 60.185 66.7367 58.9148L64.7792 56.9574H104.295C105.023 56.9574 105.614 56.3668 105.614 55.6383C105.614 54.9099 105.023 54.3193 104.295 54.3193H102.976V52.5558C106.81 53.7099 108.252 54.9907 108.252 55.6383ZM100.338 37.172V54.3193H95.0614V37.172H100.338ZM92.4234 50.7131V54.3193H89.7853V50.5205C90.6783 50.572 91.5568 50.6366 92.4234 50.7131ZM87.1473 42.4481V54.3193H81.8712V42.4481H87.1473ZM79.2331 50.5205V54.3193H76.5951V50.7131C77.4604 50.6366 78.3388 50.572 79.2331 50.5205ZM73.957 31.8959V54.3193H68.6809V31.8959H73.957ZM66.0429 52.5558V54.3193H65.4348C64.3137 54.3193 63.4048 55.2282 63.4048 56.3493L62.0541 57.0444C61.1216 56.4522 60.7667 55.943 60.7667 55.6383C60.7667 54.9907 62.2084 53.7099 66.0429 52.5558ZM35.4256 87.2963L36.9161 84.401L36.5692 83.7824C35.9295 82.6401 35.4164 81.3989 35.0484 80.0944L34.8558 79.4125L31.7482 78.4193V72.4296L34.8558 71.4337L35.0484 70.7518C35.4164 69.4512 35.9282 68.21 36.5692 67.0638L36.9148 66.4465L35.4256 63.5512L39.661 59.3158L42.5563 60.805L43.1736 60.4594C44.3198 59.8183 45.561 59.3052 46.8616 58.9386L47.5435 58.746L48.5381 55.6383H54.5278L55.5236 58.746L56.2056 58.9386C57.5061 59.3066 58.7473 59.8183 59.8936 60.4594L60.5109 60.805L63.4061 59.3158L67.6415 63.5512L66.1523 66.4465L66.4979 67.0638C67.139 68.21 67.6521 69.4512 68.0188 70.7518L68.2113 71.4337L71.319 72.4282V78.4179L68.2113 79.4125L68.0188 80.0944C67.6507 81.3989 67.139 82.6401 66.4979 83.7824L66.151 84.401L67.6415 87.2963L63.4061 91.5317L60.5109 90.0425L59.8936 90.3894C58.75 91.0278 57.5101 91.5396 56.2056 91.9089L55.5236 92.1015L54.5291 95.2092H48.5394L47.5435 92.1015L46.8616 91.9089C45.5571 91.5396 44.3172 91.0278 43.1736 90.3894L42.5563 90.0425L39.661 91.5317L35.4256 87.2963ZM48.2307 105.313L47.6872 104.588C46.3308 102.78 43.9297 102.107 41.8308 102.946L40.2493 103.578L42.8491 93.1805C43.6867 93.5894 44.5559 93.9495 45.4594 94.241L46.6149 97.8472H49.8901L48.2307 105.313ZM61.2376 102.946C59.1387 102.107 56.7377 102.78 55.3813 104.588L54.8377 105.313L53.1784 97.8472C55.1297 97.8472 56.8575 96.5865 57.4529 94.7282L57.609 94.241C58.5125 93.9508 59.3818 93.5894 60.2194 93.1805L62.8192 103.578L61.2376 102.946ZM84.5092 100.485C76.2323 100.485 68.4949 99.3839 64.0419 97.5966L63.2465 94.4151L63.91 94.7567L69.9459 88.7222C74.238 89.5123 79.2384 89.933 84.5092 89.933C94.084 89.933 103.738 88.4821 108.252 85.6752V95.2092C108.252 96.9991 99.8706 100.485 84.5092 100.485ZM84.5092 87.295C79.2028 87.295 74.1958 86.8584 69.963 86.0406L69.1386 84.438C69.6174 83.5028 70.0224 82.5188 70.3508 81.4979L70.4827 81.4556C72.5527 80.7924 73.957 78.8677 73.957 76.6941V76.1255C77.2599 76.5238 80.8621 76.7428 84.5092 76.7428C94.084 76.7428 103.738 75.2918 108.252 72.485V82.0189C108.252 83.8088 99.8706 87.295 84.5092 87.295ZM84.5092 74.1047C80.8476 74.1047 77.2388 73.8792 73.957 73.469C73.957 71.7023 72.8156 70.1381 71.1333 69.599L70.3508 69.3483C70.0237 68.33 69.6174 67.3447 69.1386 66.4082L70.8692 63.046L70.2149 62.3918C74.4002 63.1436 79.3109 63.5525 84.5092 63.5525C94.084 63.5525 103.738 62.1003 108.252 59.2947V68.8286C108.252 70.6185 99.8706 74.1047 84.5092 74.1047Z" fill="white"/>
<path d="M93.926 65.7015C93.2139 65.7791 92.6728 66.422 92.7383 67.1353C92.805 67.8606 93.4478 68.407 94.1719 68.3286C94.1876 68.3269 94.2032 68.3252 94.2188 68.3235C94.9429 68.2446 95.453 67.5725 95.3615 66.8499C95.2716 66.139 94.6383 65.6239 93.926 65.7015Z" fill="white"/>
<path d="M103.997 63.6708C103.345 63.8954 102.908 64.6023 103.101 65.2645L103.121 65.3319C103.325 66.0313 104.058 66.4367 104.748 66.2024C104.792 66.1873 104.837 66.1722 104.88 66.1571C105.568 65.9194 105.89 65.1474 105.614 64.4737L105.588 64.4093C105.326 63.7702 104.65 63.446 103.997 63.6708Z" fill="white"/>
<path d="M99.0491 64.9438C98.3516 65.0779 97.8502 65.7442 97.9678 66.4447L97.9733 66.4776C98.0938 67.1961 98.7745 67.6826 99.49 67.5454C99.5114 67.5413 99.5328 67.5372 99.5541 67.5331C100.27 67.395 100.72 66.6896 100.563 65.9779L100.556 65.9457C100.403 65.2525 99.7461 64.8097 99.0491 64.9438Z" fill="white"/>
<path d="M99.0491 78.1327C98.3516 78.2669 97.8502 78.9332 97.9678 79.6336L97.9733 79.6665C98.0938 80.3851 98.7745 80.8718 99.4901 80.7348C99.5118 80.7307 99.5335 80.7265 99.5552 80.7223C100.271 80.5845 100.72 79.8793 100.563 79.1679L100.556 79.1346C100.403 78.4414 99.7461 77.9987 99.0491 78.1327Z" fill="white"/>
<path d="M103.999 76.8592C103.346 77.0845 102.907 77.7932 103.101 78.4559L103.121 78.5225C103.325 79.2217 104.06 79.6264 104.749 79.392C104.793 79.3772 104.836 79.3624 104.879 79.3475C105.568 79.1096 105.89 78.3372 105.614 77.6629L105.588 77.5984C105.326 76.9591 104.652 76.6339 103.999 76.8592Z" fill="white"/>
<path d="M93.926 78.8926C93.2142 78.9695 92.6728 79.6127 92.7383 80.3256C92.805 81.0513 93.4481 81.5985 94.1726 81.5196C94.1875 81.518 94.2024 81.5164 94.2173 81.5147C94.9412 81.4355 95.4519 80.7642 95.3609 80.0417C95.2713 79.3307 94.6385 78.8156 93.926 78.8926Z" fill="white"/>
<path d="M99.0491 91.323C98.3516 91.4572 97.8502 92.1235 97.9678 92.824L97.9733 92.8569C98.0938 93.5754 98.7745 94.0621 99.4901 93.9251C99.5118 93.921 99.5335 93.9168 99.5552 93.9126C100.271 93.7748 100.72 93.0697 100.563 92.3582L100.556 92.3249C100.403 91.6318 99.7461 91.189 99.0491 91.323Z" fill="white"/>
<path d="M93.926 92.0828C93.2142 92.1597 92.6728 92.8028 92.7383 93.5158C92.805 94.2415 93.4481 94.7887 94.1726 94.7098C94.1875 94.7082 94.2024 94.7065 94.2173 94.7049C94.9412 94.6257 95.4519 93.9544 95.3609 93.2319C95.2713 92.5209 94.6385 92.0057 93.926 92.0828Z" fill="white"/>
<path d="M103.999 90.0495C103.346 90.2748 102.907 90.9835 103.101 91.6462L103.121 91.7128C103.325 92.412 104.06 92.8167 104.749 92.5823C104.793 92.5675 104.836 92.5527 104.879 92.5378C105.568 92.2999 105.89 91.5275 105.614 90.8532L105.588 90.7887C105.326 90.1494 104.652 89.8242 103.999 90.0495Z" fill="white"/>
</svg>
