<svg width="336" height="56" viewBox="0 0 336 56" fill="none" xmlns="http://www.w3.org/2000/svg">
<g filter="url(#filter0_ii_2_9)">
<path d="M12.9478 26.2314H14.7535V35.6565H12.9478V26.2314ZM8.70718 25.3969H18.9941V26.9837H8.70718V25.3969Z" fill="url(#paint0_linear_2_9)"/>
<path d="M21.0484 25.3969H22.8541V35.6565H21.0484V25.3969ZM29.3929 25.3969H31.1985V35.6565H29.3929V25.3969ZM22.0197 29.6923H30.2547V31.2791H22.0197V29.6923Z" fill="url(#paint1_linear_2_9)"/>
<path d="M42.3767 29.7743V31.2791H35.2087V29.7743H42.3767ZM36.3988 30.5267L35.6738 35.1093L34.812 34.097H42.7734V35.6565H33.8271L34.6479 30.5267L33.8271 25.3969H42.705V26.9564H34.812L35.6738 25.9441L36.3988 30.5267Z" fill="url(#paint2_linear_2_9)"/>
<path d="M50.5013 35.848C49.334 35.848 48.3081 35.6246 47.4235 35.1777C46.5389 34.7308 45.8503 34.1107 45.3579 33.3173C44.8654 32.5148 44.6192 31.5846 44.6192 30.5267C44.6192 29.4688 44.8654 28.5432 45.3579 27.7498C45.8503 26.9473 46.5389 26.3226 47.4235 25.8757C48.3081 25.4289 49.334 25.2054 50.5013 25.2054C51.6686 25.2054 52.6946 25.4289 53.5792 25.8757C54.4638 26.3226 55.1523 26.9473 55.6448 27.7498C56.1372 28.5432 56.3835 29.4688 56.3835 30.5267C56.3835 31.5846 56.1372 32.5148 55.6448 33.3173C55.1523 34.1107 54.4638 34.7308 53.5792 35.1777C52.6946 35.6246 51.6686 35.848 50.5013 35.848ZM50.5013 34.2338C51.3312 34.2338 52.0471 34.0833 52.649 33.7824C53.2509 33.4815 53.716 33.0528 54.0443 32.4965C54.3817 31.9402 54.5504 31.2836 54.5504 30.5267C54.5504 29.7698 54.3817 29.1132 54.0443 28.5569C53.716 28.0006 53.2509 27.572 52.649 27.271C52.0471 26.9701 51.3312 26.8196 50.5013 26.8196C49.6806 26.8196 48.9647 26.9701 48.3537 27.271C47.7518 27.572 47.2821 28.0006 46.9447 28.5569C46.6164 29.1132 46.4522 29.7698 46.4522 30.5267C46.4522 31.2836 46.6164 31.9402 46.9447 32.4965C47.2821 33.0528 47.7518 33.4815 48.3537 33.7824C48.9647 34.0833 49.6806 34.2338 50.5013 34.2338Z" fill="url(#paint3_linear_2_9)"/>
<path d="M58.1924 32.3187H60.0255C60.0802 32.7291 60.2489 33.0893 60.5316 33.3994C60.8234 33.7094 61.2065 33.9511 61.6807 34.1244C62.1549 34.2885 62.7021 34.3706 63.3222 34.3706C64.2433 34.3706 64.9729 34.2293 65.5109 33.9466C66.049 33.6547 66.318 33.2626 66.318 32.7701C66.318 32.3689 66.163 32.0679 65.8529 31.8673C65.5428 31.6667 64.982 31.5162 64.1703 31.4159L61.9543 31.1286C60.714 30.9644 59.8112 30.6589 59.2458 30.2121C58.6895 29.7561 58.4113 29.1132 58.4113 28.2833C58.4113 27.654 58.5983 27.1114 58.9722 26.6554C59.3552 26.1903 59.8932 25.8347 60.5863 25.5884C61.2794 25.3331 62.0911 25.2054 63.0213 25.2054C63.9423 25.2054 64.7585 25.3422 65.4699 25.6158C66.1812 25.8894 66.7466 26.2724 67.1661 26.7649C67.5947 27.2482 67.8273 27.8182 67.8638 28.4748H66.0307C65.9851 28.11 65.8301 27.7954 65.5656 27.5309C65.3103 27.2665 64.9637 27.0613 64.526 26.9153C64.0883 26.7603 63.573 26.6828 62.9802 26.6828C62.1412 26.6828 61.4709 26.8196 60.9694 27.0932C60.4678 27.3668 60.217 27.7407 60.217 28.2149C60.217 28.5797 60.3629 28.8624 60.6547 29.063C60.9557 29.2545 61.4755 29.4004 62.2142 29.5008L64.4576 29.8154C65.3787 29.9431 66.1037 30.1163 66.6326 30.3352C67.1707 30.5449 67.5537 30.8322 67.7817 31.197C68.0097 31.5527 68.1237 32.0132 68.1237 32.5786C68.1237 33.2352 67.923 33.8098 67.5218 34.3022C67.1205 34.7947 66.5551 35.1777 65.8255 35.4513C65.1051 35.7158 64.2615 35.848 63.2949 35.848C62.3099 35.848 61.439 35.7021 60.6821 35.4102C59.9343 35.1093 59.3415 34.6944 58.9038 34.1654C58.466 33.6365 58.2289 33.0209 58.1924 32.3187Z" fill="url(#paint4_linear_2_9)"/>
<path d="M88.5933 25.3969V35.6565H86.8697V25.9441L87.4305 25.9715L82.6564 35.6565H80.7276L75.9535 25.9852L76.5144 25.9578V35.6565H74.7908V25.3969H77.554L82.1503 34.8768H81.2474L85.83 25.3969H88.5933Z" fill="url(#paint5_linear_2_9)"/>
<path d="M99.766 29.7743V31.2791H92.598V29.7743H99.766ZM93.7881 30.5267L93.0631 35.1093L92.2013 34.097H100.163V35.6565H91.2164L92.0372 30.5267L91.2164 25.3969H100.094V26.9564H92.2013L93.0631 25.9441L93.7881 30.5267Z" fill="url(#paint6_linear_2_9)"/>
<path d="M105.853 26.2314H107.658V35.6565H105.853V26.2314ZM101.612 25.3969H111.899V26.9837H101.612V25.3969Z" fill="url(#paint7_linear_2_9)"/>
<path d="M113.531 33.3036V31.8126H120.699V33.3036H113.531ZM118.292 25.3969L123.216 35.6565H121.287L116.814 26.0809H117.512L113.039 35.6565H111.11L116.035 25.3969H118.292Z" fill="url(#paint8_linear_2_9)"/>
<path d="M126.956 25.3969V34.8494L126.149 34.0697H133.878V35.6565H125.151V25.3969H126.956Z" fill="url(#paint9_linear_2_9)"/>
<path d="M51.7539 46.197C51.7448 46.8354 51.6217 47.4373 51.3845 48.0027C51.1474 48.559 50.81 49.0514 50.3723 49.48C49.9345 49.9087 49.401 50.2461 48.7718 50.4923C48.1517 50.7294 47.4403 50.848 46.6378 50.848C45.8262 50.848 45.0738 50.7249 44.3807 50.4786C43.6876 50.2324 43.0812 49.8813 42.5613 49.4253C42.0507 48.9602 41.6539 48.3994 41.3712 47.7428C41.0885 47.0861 40.9472 46.3475 40.9472 45.5267C40.9472 44.7059 41.0885 43.9672 41.3712 43.3106C41.6631 42.654 42.0689 42.0977 42.5887 41.6418C43.1085 41.1767 43.7195 40.821 44.4217 40.5748C45.1239 40.3285 45.8946 40.2054 46.7336 40.2054C47.7823 40.2054 48.6988 40.3787 49.4831 40.7252C50.2765 41.0627 50.9149 41.5278 51.3982 42.1205C51.8816 42.7133 52.178 43.3927 52.2874 44.1588H50.4543C50.354 43.6754 50.1352 43.2559 49.7977 42.9003C49.4694 42.5446 49.0454 42.271 48.5256 42.0795C48.0057 41.888 47.4038 41.7922 46.7199 41.7922C45.9174 41.7922 45.2197 41.9427 44.6269 42.2436C44.0433 42.5355 43.5873 42.9595 43.259 43.5158C42.9398 44.0721 42.7802 44.7424 42.7802 45.5267C42.7802 46.311 42.9444 46.9858 43.2727 47.5512C43.6101 48.1167 44.0843 48.5498 44.6953 48.8508C45.3063 49.1517 46.0268 49.3022 46.8567 49.3022C47.6592 49.3022 48.3614 49.1654 48.9633 48.8918C49.5652 48.6182 50.0394 48.2398 50.386 47.7564C50.7325 47.264 50.9194 46.694 50.9468 46.0465L51.7539 46.197ZM47.2123 46.9767V45.6088H52.3968V50.6565H51.0562L50.8374 46.4022L51.2614 46.9767H47.2123Z" fill="url(#paint10_linear_2_9)"/>
<path d="M56.3678 45.0206H60.54C61.1419 45.0206 61.6161 44.8838 61.9627 44.6102C62.3183 44.3366 62.4962 43.9627 62.4962 43.4885C62.4962 43.0051 62.3183 42.6312 61.9627 42.3668C61.6161 42.0932 61.1419 41.9564 60.54 41.9564H56.1079L56.915 40.9441V50.6565H55.1093V40.3969H60.7042C61.4246 40.3969 62.0539 40.5292 62.5919 40.7936C63.1391 41.049 63.5632 41.4092 63.8641 41.8743C64.1742 42.3303 64.3292 42.8683 64.3292 43.4885C64.3292 44.0904 64.1742 44.6239 63.8641 45.089C63.5632 45.5449 63.1391 45.9052 62.5919 46.1696C62.0539 46.425 61.4246 46.5527 60.7042 46.5527H56.3678V45.0206ZM58.3923 45.855H60.5126L64.5891 50.6565H62.4278L58.3923 45.855Z" fill="url(#paint11_linear_2_9)"/>
<path d="M72.1358 50.848C70.9685 50.848 69.9426 50.6245 69.058 50.1777C68.1734 49.7308 67.4849 49.1107 66.9924 48.3173C66.4999 47.5148 66.2537 46.5846 66.2537 45.5267C66.2537 44.4688 66.4999 43.5432 66.9924 42.7498C67.4849 41.9473 68.1734 41.3226 69.058 40.8757C69.9426 40.4288 70.9685 40.2054 72.1358 40.2054C73.3032 40.2054 74.3291 40.4288 75.2137 40.8757C76.0983 41.3226 76.7868 41.9473 77.2793 42.7498C77.7717 43.5432 78.018 44.4688 78.018 45.5267C78.018 46.5846 77.7717 47.5148 77.2793 48.3173C76.7868 49.1107 76.0983 49.7308 75.2137 50.1777C74.3291 50.6245 73.3032 50.848 72.1358 50.848ZM72.1358 49.2338C72.9657 49.2338 73.6816 49.0833 74.2835 48.7824C74.8854 48.4814 75.3505 48.0528 75.6788 47.4965C76.0162 46.9402 76.1849 46.2836 76.1849 45.5267C76.1849 44.7698 76.0162 44.1132 75.6788 43.5569C75.3505 43.0006 74.8854 42.572 74.2835 42.271C73.6816 41.9701 72.9657 41.8196 72.1358 41.8196C71.3151 41.8196 70.5992 41.9701 69.9882 42.271C69.3863 42.572 68.9166 43.0006 68.5792 43.5569C68.2509 44.1132 68.0868 44.7698 68.0868 45.5267C68.0868 46.2836 68.2509 46.9402 68.5792 47.4965C68.9166 48.0528 69.3863 48.4814 69.9882 48.7824C70.5992 49.0833 71.3151 49.2338 72.1358 49.2338Z" fill="url(#paint12_linear_2_9)"/>
<path d="M82.1251 46.2517C82.1251 46.8627 82.2482 47.3917 82.4945 47.8385C82.7407 48.2854 83.0918 48.6319 83.5478 48.8781C84.0129 49.1153 84.5646 49.2338 85.203 49.2338C85.8505 49.2338 86.4022 49.1153 86.8582 48.8781C87.3142 48.6319 87.6653 48.2854 87.9115 47.8385C88.1577 47.3917 88.2808 46.8627 88.2808 46.2517V40.3969H90.0865V46.3201C90.0865 47.2229 89.8813 48.0163 89.4709 48.7003C89.0606 49.3752 88.4906 49.9041 87.761 50.2871C87.0314 50.661 86.1788 50.848 85.203 50.848C84.2363 50.848 83.3836 50.661 82.6449 50.2871C81.9154 49.9041 81.3454 49.3752 80.935 48.7003C80.5246 48.0163 80.3194 47.2229 80.3194 46.3201V40.3969H82.1251V46.2517Z" fill="url(#paint13_linear_2_9)"/>
<path d="M98.3667 40.3969C99.1327 40.3969 99.7939 40.5337 100.35 40.8073C100.916 41.0809 101.349 41.4639 101.65 41.9564C101.96 42.4397 102.115 43.0006 102.115 43.6389C102.115 44.2773 101.96 44.8427 101.65 45.3352C101.349 45.8185 100.916 46.197 100.35 46.4706C99.7939 46.7442 99.1327 46.881 98.3667 46.881H93.7567V45.3215H98.2983C98.9184 45.3215 99.4018 45.171 99.7483 44.8701C100.104 44.5691 100.282 44.1588 100.282 43.6389C100.282 43.1191 100.104 42.7087 99.7483 42.4078C99.4018 42.1069 98.9184 41.9564 98.2983 41.9564H93.9346L94.7417 41.0535V50.6565H92.936V40.3969H98.3667Z" fill="url(#paint14_linear_2_9)"/>
<path d="M304.227 0C310.319 1.00931e-05 315.521 0.913737 319.832 2.74121C324.19 4.52191 327.681 6.98242 330.305 10.1221C332.977 13.2617 334.733 16.8939 335.577 21.0176H317.372C316.95 19.7056 316.107 18.6041 314.842 17.7139C313.623 16.7767 312.123 16.0731 310.343 15.6045C308.562 15.0891 306.57 14.832 304.368 14.832C301.65 14.832 299.307 15.3001 297.339 16.2373C295.371 17.1276 293.847 18.5104 292.769 20.3848C291.739 22.259 291.224 24.6723 291.223 27.624C291.223 30.6229 291.809 33.1071 292.98 35.0752C294.199 37.0433 295.91 38.4964 298.112 39.4336C300.361 40.3707 303.009 40.8388 306.055 40.8388C308.911 40.8388 311.461 40.5302 313.703 39.916C313.718 39.9195 313.734 39.9242 313.75 39.9277C313.837 39.894 313.926 39.861 314.015 39.8271C314.587 39.6489 315.131 39.4488 315.647 39.2265C319.771 37.7587 324.912 36.2561 327.475 35.959H307.18V25.7969H335.999V53.9834H323.417L322.662 48.2842C320.605 50.3707 318.022 52.0372 314.912 53.2812C311.632 54.5933 307.742 55.249 303.243 55.249C299.166 55.249 295.3 54.6636 291.645 53.4922C288.037 52.3206 284.827 50.5862 282.015 48.29C279.251 45.947 277.072 43.0652 275.478 39.6445C273.885 36.1768 273.089 32.1695 273.089 27.624C273.089 23.0787 273.885 19.0955 275.478 15.6748C277.072 12.2072 279.298 9.32542 282.156 7.02929C285.015 4.68631 288.318 2.92932 292.067 1.75781C295.816 0.586328 299.869 1.94947e-05 304.227 0ZM179.635 1.70996V17.9336H160.949L160.948 17.9326H149.703C153.341 18.3737 160.617 20.1489 160.617 23.7207C160.617 23.9816 160.632 24.2105 160.656 24.4101V54.2802H142.52V17.9336H129.527V17.9541H0V1.70996H179.635ZM225.987 35.6426L238.477 1.70996H266.524V53.9834H249.303V16.9873L234.892 53.9834H216.969L202.558 17.1582V53.9834H185.337V1.70996H213.384L225.987 35.6426Z" fill="url(#paint15_linear_2_9)"/>
</g>
<defs>
<filter id="filter0_ii_2_9" x="0" y="-1.02595" width="336" height="56.9162" filterUnits="userSpaceOnUse" color-interpolation-filters="sRGB">
<feFlood flood-opacity="0" result="BackgroundImageFix"/>
<feBlend mode="normal" in="SourceGraphic" in2="BackgroundImageFix" result="shape"/>
<feColorMatrix in="SourceAlpha" type="matrix" values="0 0 0 0 0 0 0 0 0 0 0 0 0 0 0 0 0 0 127 0" result="hardAlpha"/>
<feOffset dy="1.28244"/>
<feGaussianBlur stdDeviation="0.320611"/>
<feComposite in2="hardAlpha" operator="arithmetic" k2="-1" k3="1"/>
<feColorMatrix type="matrix" values="0 0 0 0 1 0 0 0 0 1 0 0 0 0 1 0 0 0 0.25 0"/>
<feBlend mode="normal" in2="shape" result="effect1_innerShadow_2_9"/>
<feColorMatrix in="SourceAlpha" type="matrix" values="0 0 0 0 0 0 0 0 0 0 0 0 0 0 0 0 0 0 127 0" result="hardAlpha"/>
<feOffset dy="-1.28244"/>
<feGaussianBlur stdDeviation="0.512977"/>
<feComposite in2="hardAlpha" operator="arithmetic" k2="-1" k3="1"/>
<feColorMatrix type="matrix" values="0 0 0 0 1 0 0 0 0 1 0 0 0 0 1 0 0 0 0.6 0"/>
<feBlend mode="normal" in2="effect1_innerShadow_2_9" result="effect2_innerShadow_2_9"/>
</filter>
<linearGradient id="paint0_linear_2_9" x1="59.3493" y1="20.8405" x2="59.3493" y2="52.9822" gradientUnits="userSpaceOnUse">
<stop stop-color="#818181"/>
<stop offset="0.221154" stop-color="#C9C9C9"/>
<stop offset="0.259615" stop-color="#818181"/>
<stop offset="0.639423" stop-color="#DCDCDC"/>
<stop offset="0.783654" stop-color="#444444"/>
<stop offset="1" stop-color="#818181"/>
</linearGradient>
<linearGradient id="paint1_linear_2_9" x1="59.3493" y1="20.8405" x2="59.3493" y2="52.9822" gradientUnits="userSpaceOnUse">
<stop stop-color="#818181"/>
<stop offset="0.221154" stop-color="#C9C9C9"/>
<stop offset="0.259615" stop-color="#818181"/>
<stop offset="0.639423" stop-color="#DCDCDC"/>
<stop offset="0.783654" stop-color="#444444"/>
<stop offset="1" stop-color="#818181"/>
</linearGradient>
<linearGradient id="paint2_linear_2_9" x1="59.3493" y1="20.8405" x2="59.3493" y2="52.9822" gradientUnits="userSpaceOnUse">
<stop stop-color="#818181"/>
<stop offset="0.221154" stop-color="#C9C9C9"/>
<stop offset="0.259615" stop-color="#818181"/>
<stop offset="0.639423" stop-color="#DCDCDC"/>
<stop offset="0.783654" stop-color="#444444"/>
<stop offset="1" stop-color="#818181"/>
</linearGradient>
<linearGradient id="paint3_linear_2_9" x1="59.3493" y1="20.8405" x2="59.3493" y2="52.9822" gradientUnits="userSpaceOnUse">
<stop stop-color="#818181"/>
<stop offset="0.221154" stop-color="#C9C9C9"/>
<stop offset="0.259615" stop-color="#818181"/>
<stop offset="0.639423" stop-color="#DCDCDC"/>
<stop offset="0.783654" stop-color="#444444"/>
<stop offset="1" stop-color="#818181"/>
</linearGradient>
<linearGradient id="paint4_linear_2_9" x1="59.3493" y1="20.8405" x2="59.3493" y2="52.9822" gradientUnits="userSpaceOnUse">
<stop stop-color="#818181"/>
<stop offset="0.221154" stop-color="#C9C9C9"/>
<stop offset="0.259615" stop-color="#818181"/>
<stop offset="0.639423" stop-color="#DCDCDC"/>
<stop offset="0.783654" stop-color="#444444"/>
<stop offset="1" stop-color="#818181"/>
</linearGradient>
<linearGradient id="paint5_linear_2_9" x1="59.3493" y1="20.8405" x2="59.3493" y2="52.9822" gradientUnits="userSpaceOnUse">
<stop stop-color="#818181"/>
<stop offset="0.221154" stop-color="#C9C9C9"/>
<stop offset="0.259615" stop-color="#818181"/>
<stop offset="0.639423" stop-color="#DCDCDC"/>
<stop offset="0.783654" stop-color="#444444"/>
<stop offset="1" stop-color="#818181"/>
</linearGradient>
<linearGradient id="paint6_linear_2_9" x1="59.3493" y1="20.8405" x2="59.3493" y2="52.9822" gradientUnits="userSpaceOnUse">
<stop stop-color="#818181"/>
<stop offset="0.221154" stop-color="#C9C9C9"/>
<stop offset="0.259615" stop-color="#818181"/>
<stop offset="0.639423" stop-color="#DCDCDC"/>
<stop offset="0.783654" stop-color="#444444"/>
<stop offset="1" stop-color="#818181"/>
</linearGradient>
<linearGradient id="paint7_linear_2_9" x1="59.3493" y1="20.8405" x2="59.3493" y2="52.9822" gradientUnits="userSpaceOnUse">
<stop stop-color="#818181"/>
<stop offset="0.221154" stop-color="#C9C9C9"/>
<stop offset="0.259615" stop-color="#818181"/>
<stop offset="0.639423" stop-color="#DCDCDC"/>
<stop offset="0.783654" stop-color="#444444"/>
<stop offset="1" stop-color="#818181"/>
</linearGradient>
<linearGradient id="paint8_linear_2_9" x1="59.3493" y1="20.8405" x2="59.3493" y2="52.9822" gradientUnits="userSpaceOnUse">
<stop stop-color="#818181"/>
<stop offset="0.221154" stop-color="#C9C9C9"/>
<stop offset="0.259615" stop-color="#818181"/>
<stop offset="0.639423" stop-color="#DCDCDC"/>
<stop offset="0.783654" stop-color="#444444"/>
<stop offset="1" stop-color="#818181"/>
</linearGradient>
<linearGradient id="paint9_linear_2_9" x1="59.3493" y1="20.8405" x2="59.3493" y2="52.9822" gradientUnits="userSpaceOnUse">
<stop stop-color="#818181"/>
<stop offset="0.221154" stop-color="#C9C9C9"/>
<stop offset="0.259615" stop-color="#818181"/>
<stop offset="0.639423" stop-color="#DCDCDC"/>
<stop offset="0.783654" stop-color="#444444"/>
<stop offset="1" stop-color="#818181"/>
</linearGradient>
<linearGradient id="paint10_linear_2_9" x1="59.3493" y1="20.8405" x2="59.3493" y2="52.9822" gradientUnits="userSpaceOnUse">
<stop stop-color="#818181"/>
<stop offset="0.221154" stop-color="#C9C9C9"/>
<stop offset="0.259615" stop-color="#818181"/>
<stop offset="0.639423" stop-color="#DCDCDC"/>
<stop offset="0.783654" stop-color="#444444"/>
<stop offset="1" stop-color="#818181"/>
</linearGradient>
<linearGradient id="paint11_linear_2_9" x1="59.3493" y1="20.8405" x2="59.3493" y2="52.9822" gradientUnits="userSpaceOnUse">
<stop stop-color="#818181"/>
<stop offset="0.221154" stop-color="#C9C9C9"/>
<stop offset="0.259615" stop-color="#818181"/>
<stop offset="0.639423" stop-color="#DCDCDC"/>
<stop offset="0.783654" stop-color="#444444"/>
<stop offset="1" stop-color="#818181"/>
</linearGradient>
<linearGradient id="paint12_linear_2_9" x1="59.3493" y1="20.8405" x2="59.3493" y2="52.9822" gradientUnits="userSpaceOnUse">
<stop stop-color="#818181"/>
<stop offset="0.221154" stop-color="#C9C9C9"/>
<stop offset="0.259615" stop-color="#818181"/>
<stop offset="0.639423" stop-color="#DCDCDC"/>
<stop offset="0.783654" stop-color="#444444"/>
<stop offset="1" stop-color="#818181"/>
</linearGradient>
<linearGradient id="paint13_linear_2_9" x1="59.3493" y1="20.8405" x2="59.3493" y2="52.9822" gradientUnits="userSpaceOnUse">
<stop stop-color="#818181"/>
<stop offset="0.221154" stop-color="#C9C9C9"/>
<stop offset="0.259615" stop-color="#818181"/>
<stop offset="0.639423" stop-color="#DCDCDC"/>
<stop offset="0.783654" stop-color="#444444"/>
<stop offset="1" stop-color="#818181"/>
</linearGradient>
<linearGradient id="paint14_linear_2_9" x1="59.3493" y1="20.8405" x2="59.3493" y2="52.9822" gradientUnits="userSpaceOnUse">
<stop stop-color="#818181"/>
<stop offset="0.221154" stop-color="#C9C9C9"/>
<stop offset="0.259615" stop-color="#818181"/>
<stop offset="0.639423" stop-color="#DCDCDC"/>
<stop offset="0.783654" stop-color="#444444"/>
<stop offset="1" stop-color="#818181"/>
</linearGradient>
<linearGradient id="paint15_linear_2_9" x1="135.94" y1="-9.40458" x2="135.94" y2="59.8473" gradientUnits="userSpaceOnUse">
<stop stop-color="#818181"/>
<stop offset="0.221154" stop-color="#C9C9C9"/>
<stop offset="0.259615" stop-color="#818181"/>
<stop offset="0.639423" stop-color="#DCDCDC"/>
<stop offset="0.783654" stop-color="#444444"/>
<stop offset="1" stop-color="#818181"/>
</linearGradient>
</defs>
</svg>
