<svg width="100" height="100" viewBox="0 0 100 100" fill="none" xmlns="http://www.w3.org/2000/svg">
<path d="M15.9837 90.0002C14.4684 90.0002 12.9938 89.3923 11.926 88.3242C10.8365 87.2347 10.226 85.7228 10.2507 84.1756C10.2749 82.6633 10.8838 81.2717 11.9654 80.2573L24.2617 68.7226C24.9539 68.0731 26.0418 68.1078 26.691 68.8003C27.3404 69.4926 27.3057 70.5803 26.6134 71.2297L14.3171 82.7644C13.9206 83.1366 13.697 83.6572 13.6879 84.2308C13.6781 84.8525 13.9218 85.4586 14.3568 85.8939C14.7915 86.3287 15.3979 86.5745 16.0193 86.5623C16.5932 86.5531 17.1142 86.3298 17.486 85.9333L28.982 73.6786C29.6315 72.9859 30.7193 72.9517 31.4114 73.6009C32.1037 74.2503 32.1384 75.338 31.489 76.0303L19.9932 88.285C18.979 89.3664 17.5873 89.9753 16.0743 89.9995C16.0442 89.9998 16.014 90.0002 15.9837 90.0002Z" fill="white"/>
<path d="M40.2907 68.71C35.3193 68.71 30.7051 65.6512 28.249 60.7272C28.0079 60.244 28.0079 59.6757 28.249 59.1928C30.7052 54.2687 35.3193 51.21 40.2907 51.21C45.262 51.21 49.8764 54.2687 52.3326 59.1928C52.5737 59.6759 52.5737 60.2442 52.3326 60.7272C49.8762 65.6512 45.262 68.71 40.2907 68.71ZM31.7407 59.96C33.6781 63.2579 36.8874 65.2725 40.2907 65.2725C43.694 65.2725 46.9032 63.2579 48.8409 59.96C46.9034 56.662 43.694 54.6475 40.2907 54.6475C36.8874 54.6475 33.6781 56.662 31.7407 59.96Z" fill="white"/>
<path d="M40.2913 61.6787C39.3421 61.6787 38.5719 60.9092 38.5719 59.96C38.5719 59.0107 39.3408 58.2412 40.29 58.2412H40.2913C41.2405 58.2412 42.01 59.0107 42.01 59.96C42.01 60.9092 41.2405 61.6787 40.2913 61.6787Z" fill="white"/>
<path d="M88.5314 17.8127H82.4375V11.7188C82.4375 10.7695 81.668 10 80.7188 10H32.4781C31.5289 10 30.7594 10.7695 30.7594 11.7188V43.2685C24.9728 46.5858 21.0662 52.825 21.0662 59.9596C21.0662 69.981 28.7736 78.236 38.572 79.1082V83.6129C38.572 84.5621 39.3415 85.3316 40.2908 85.3316H88.5314C89.4806 85.3316 90.2502 84.5621 90.2502 83.6129V19.5314C90.2502 18.5822 89.4806 17.8127 88.5314 17.8127ZM34.1969 13.4375H79V17.8127H40.2908C39.3415 17.8127 38.572 18.5822 38.572 19.5314V40.8113C37.0567 40.9461 35.5914 41.2577 34.1969 41.7249V13.4375ZM24.5037 59.9596C24.5037 51.2546 31.5858 44.1725 40.2909 44.1725C48.9959 44.1725 56.078 51.2546 56.078 59.9596C56.078 68.6647 48.9959 75.7468 40.2909 75.7468C31.5858 75.7468 24.5037 68.6647 24.5037 59.9596ZM86.8127 81.8941H42.0095V79.1082C51.808 78.2361 59.5155 69.981 59.5155 59.9596C59.5155 49.9383 51.808 41.6831 42.0095 40.8111V21.2502H86.8127V81.8941Z" fill="white"/>
<path d="M48.0049 28.3701H80.8175C81.7667 28.3701 82.5362 27.6006 82.5362 26.6514C82.5362 25.7021 81.7667 24.9326 80.8175 24.9326H48.0049C47.0557 24.9326 46.2862 25.7021 46.2862 26.6514C46.2862 27.6006 47.0557 28.3701 48.0049 28.3701Z" fill="white"/>
<path d="M80.8173 32.0532H53.273C52.3237 32.0532 51.5542 32.8228 51.5542 33.772C51.5542 34.7212 52.3237 35.4907 53.273 35.4907H80.8173C81.7666 35.4907 82.5361 34.7212 82.5361 33.772C82.5361 32.8228 81.7666 32.0532 80.8173 32.0532Z" fill="white"/>
<path d="M80.8174 39.1729H62.438C61.4888 39.1729 60.7192 39.9424 60.7192 40.8916C60.7192 41.8408 61.4888 42.6104 62.438 42.6104H80.8174C81.7666 42.6104 82.5361 41.8408 82.5361 40.8916C82.5361 39.9424 81.7666 39.1729 80.8174 39.1729Z" fill="white"/>
<path d="M80.8175 46.293H66.9689C66.0197 46.293 65.2501 47.0625 65.2501 48.0117C65.2501 48.9609 66.0197 49.7305 66.9689 49.7305H80.8175C81.7667 49.7305 82.5362 48.9609 82.5362 48.0117C82.5362 47.0625 81.7667 46.293 80.8175 46.293Z" fill="white"/>
<path d="M80.8175 60.5337H69.4269C68.4777 60.5337 67.7081 61.3032 67.7081 62.2524C67.7081 63.2017 68.4777 63.9712 69.4269 63.9712H80.8175C81.7667 63.9712 82.5363 63.2017 82.5363 62.2524C82.5363 61.3032 81.7667 60.5337 80.8175 60.5337Z" fill="white"/>
<path d="M80.8174 67.6533H67.9663C67.0171 67.6533 66.2476 68.4229 66.2476 69.3721C66.2476 70.3213 67.0171 71.0908 67.9663 71.0908H80.8174C81.7666 71.0908 82.5362 70.3213 82.5362 69.3721C82.5362 68.4229 81.7666 67.6533 80.8174 67.6533Z" fill="white"/>
<path d="M80.8175 74.7739H64.3909C63.4417 74.7739 62.6722 75.5435 62.6722 76.4927C62.6722 77.4419 63.4417 78.2114 64.3909 78.2114H80.8175C81.7667 78.2114 82.5363 77.4419 82.5363 76.4927C82.5363 75.5435 81.7667 74.7739 80.8175 74.7739Z" fill="white"/>
</svg>
