<svg width="100" height="100" viewBox="0 0 100 100" fill="none" xmlns="http://www.w3.org/2000/svg">
<path d="M86.4654 56.0044H82.5847C80.3067 55.9199 80.3084 52.6506 82.5847 52.5669H86.4654C88.7434 52.6514 88.7417 55.9208 86.4654 56.0044Z" fill="white"/>
<path d="M45.0818 31.5587H38.9556C38.8904 31.5527 38.8242 31.5527 38.759 31.5587H32.7309C32.6657 31.5527 32.5995 31.5527 32.5343 31.5587H26.4081C25.4589 31.5587 24.6893 32.3282 24.6893 33.2774V51.951C24.6893 52.9002 25.4589 53.6697 26.4081 53.6697H45.0817C46.0309 53.6697 46.8004 52.9002 46.8004 51.951V33.2774C46.8006 32.3282 46.031 31.5587 45.0818 31.5587ZM34.3515 34.9962H37.1385V39.8333L36.5135 39.5208C36.0296 39.279 35.4601 39.279 34.9764 39.5208L34.3515 39.8332V34.9962ZM43.3631 50.2322H28.127V34.9962H30.914V42.6141C30.914 43.2097 31.2225 43.763 31.7292 44.0762C32.2359 44.3893 32.8687 44.4177 33.4015 44.1515L35.7451 42.9797L38.0889 44.1515C38.6207 44.4176 39.2537 44.3897 39.761 44.0762C40.2678 43.763 40.5762 43.2099 40.5762 42.6141V34.9962H43.3632V50.2322H43.3631Z" fill="white"/>
<path d="M27.0301 68.4536C24.7521 68.3694 24.7526 65.1 27.029 65.0161H27.0301C29.3081 65.1006 29.3063 68.3699 27.0301 68.4536Z" fill="white"/>
<path d="M72.4711 68.4536C70.1932 68.3694 70.1936 65.1002 72.47 65.0161H72.4711C74.7491 65.1006 74.7474 68.3699 72.4711 68.4536Z" fill="white"/>
<path d="M88.1937 58.7995V48.0609C88.1937 47.6052 88.0127 47.168 87.6903 46.8456L84.5781 43.7333C84.2558 43.4109 83.8186 43.2298 83.3628 43.2298H79.7283L73.2628 28.6889C72.9869 28.0683 72.3714 27.6684 71.6923 27.6684H60.1841V24.7188C60.1841 23.7695 59.4145 23 58.4653 23H13.0248C12.0756 23 11.3061 23.7695 11.3061 24.7188V58.7995C10.4333 58.8816 9.75 59.6156 9.75 60.51V66.7345C9.75 67.6838 10.5195 68.4533 11.4688 68.4533H18.5455C20.8234 68.3688 20.8217 65.0995 18.5455 65.0158H13.1875V62.2288H21.4316C23.7095 62.1442 23.7078 58.875 21.4316 58.7913H14.7436V26.4375H56.7464V58.7913H32.6328C30.3548 58.8758 30.3566 62.145 32.6328 62.2288H67.3445C69.6225 62.1442 69.6208 58.875 67.3445 58.7913H60.1839V31.1059H63.7489V44.9486C63.7489 45.8978 64.5184 46.6673 65.4677 46.6673H82.6508L84.7562 48.7728V58.7913H77.7883C75.5103 58.8758 75.512 62.145 77.7883 62.2288H86.2614C86.2784 62.2309 86.2953 62.2336 86.3125 62.2352V65.0158H80.6683C78.3903 65.1003 78.392 68.3695 80.6683 68.4533H88.0312C88.9805 68.4533 89.75 67.6838 89.75 66.7345V60.51C89.75 59.6156 89.0667 58.8816 88.1937 58.7995ZM67.1866 43.2298V31.1059H70.5755L75.9662 43.2298H67.1866Z" fill="white"/>
<path d="M64.2504 65.0161H35.3806C33.1026 65.1006 33.1043 68.3699 35.3806 68.4536H64.2504C66.5284 68.3691 66.5267 65.0997 64.2504 65.0161Z" fill="white"/>
<path d="M27.0296 76.2342C21.7916 76.2342 17.53 71.9728 17.53 66.7349C18.0077 54.1499 36.0533 54.1531 36.5289 66.735C36.5291 71.9728 32.2677 76.2342 27.0296 76.2342ZM27.0296 60.6728C23.6869 60.6728 20.9675 63.3922 20.9675 66.7349C21.2722 74.7658 32.788 74.7636 33.0914 66.7349C33.0916 63.3922 30.3722 60.6728 27.0296 60.6728Z" fill="white"/>
<path d="M72.4705 76.2342C67.2325 76.2342 62.9709 71.9728 62.9709 66.7349C63.4486 54.1499 81.4942 54.1531 81.9699 66.735C81.9699 71.9728 77.7086 76.2342 72.4705 76.2342ZM72.4705 60.6728C69.128 60.6728 66.4084 63.3922 66.4084 66.7349C66.7131 74.7658 78.2289 74.7636 78.5324 66.7349C78.5324 63.3922 75.8131 60.6728 72.4705 60.6728Z" fill="white"/>
</svg>
