<svg width="100" height="100" viewBox="0 0 100 100" fill="none" xmlns="http://www.w3.org/2000/svg">
<path d="M58.7595 54.1454C58.4242 54.1454 58.0899 54.0546 57.794 53.8747C57.2409 53.5379 56.9032 52.9369 56.9032 52.2891V50.4049H51.6178C48.732 50.4049 46.3844 48.0598 46.3844 45.177V15.2278C46.3844 12.3452 48.7322 10 51.6178 10H87.6719C90.5576 10 92.9054 12.3451 92.9054 15.2278V45.177C92.9054 48.0596 90.5576 50.4049 87.6719 50.4049H66.4494L59.6116 53.9383C59.3439 54.0766 59.0515 54.1454 58.7595 54.1454ZM51.6176 13.7129C50.7791 13.7129 50.0969 14.3925 50.0969 15.228V45.1772C50.0969 46.0126 50.7791 46.6923 51.6176 46.6923H58.7593C59.7846 46.6923 60.6157 47.5235 60.6157 48.5487V49.2404L65.1457 46.8994C65.4091 46.7632 65.7013 46.6922 65.9979 46.6922H87.6715C88.5101 46.6922 89.1924 46.0126 89.1924 45.177V15.2278C89.1924 14.3925 88.5103 13.7127 87.6715 13.7127L51.6176 13.7129Z" fill="white"/>
<path d="M69.6452 42.1021C68.0038 42.1072 67.1701 40.0908 68.3322 38.9328C69.2229 38.0038 70.8965 38.3322 71.3581 39.537C71.8828 40.7134 70.9311 42.1323 69.6452 42.1021Z" fill="white"/>
<path d="M69.6448 36.6915C68.6196 36.6915 67.7885 35.8603 67.7885 34.8351V29.5593C67.7885 28.5341 68.6195 27.7031 69.6445 27.703C71.4513 27.7026 72.9315 26.1408 72.8378 24.3419C72.7516 22.6844 71.3787 21.3594 69.7122 21.3257C67.9794 21.2906 66.4473 22.7826 66.4473 24.5141C66.4473 25.5393 65.6162 26.3704 64.591 26.3704C63.5658 26.3704 62.7346 25.5393 62.7346 24.5141C62.7346 22.6643 63.4745 20.9205 64.818 19.6038C66.1653 18.2833 67.9319 17.5752 69.7864 17.6138C73.3898 17.6864 76.3588 20.557 76.5456 24.1492C76.6449 26.0601 75.9749 27.8758 74.6591 29.2616C73.7942 30.1726 72.6955 30.825 71.5012 31.1597V34.8351C71.5012 35.8603 70.6701 36.6915 69.6448 36.6915Z" fill="white"/>
<path d="M11.4647 90.0001C10.4395 90.0001 9.60837 89.169 9.60837 88.1438V88.0451C9.60837 84.6091 12.4069 81.8138 15.8471 81.8138H66.9801C68.3729 81.8138 69.5059 80.684 69.5059 79.2952C69.5059 77.9065 68.3729 76.7767 66.9801 76.7767H54.5773C53.5521 76.7767 52.721 75.9455 52.721 74.9203C52.721 73.8951 53.5521 73.064 54.5773 73.064H66.9801C70.4201 73.064 73.2186 75.8593 73.2186 79.2952C73.2186 82.7312 70.4201 85.5265 66.9801 85.5265H15.8469C14.4541 85.5265 13.3209 86.6563 13.3209 88.0451V88.1438C13.3211 89.169 12.4899 90.0001 11.4647 90.0001Z" fill="white"/>
<path d="M41.2626 53.2017C44.6007 50.234 49.7343 50.5312 52.7062 53.8651L59.8529 61.8821C61.2925 63.497 62.0163 65.5751 61.8909 67.7335C61.7655 69.8923 60.8058 71.8732 59.1884 73.311L54.8943 77.1285C52.5688 79.1946 49.666 80.2106 46.7738 80.2106C43.403 80.2106 40.0467 78.8308 37.6348 76.1252C37.6292 76.1188 37.6236 76.1126 37.6181 76.1062L9.58613 43.7842C7.42011 41.3497 6.33178 38.219 6.52113 34.9674C6.71081 31.7108 8.15944 28.7233 10.6 26.5549L14.8904 22.7406C18.2286 19.773 23.362 20.0708 26.3336 23.4043L33.4809 31.4219C34.9205 33.0368 35.6443 35.1149 35.5189 37.2731C35.3935 39.4319 34.4339 41.4126 32.8167 42.8505L31.2233 44.2674L39.7642 54.534L41.2626 53.2017ZM40.4144 73.6637C43.5371 77.1567 48.9236 77.4667 52.428 74.3534L56.7216 70.5363C57.5971 69.758 58.1166 68.6862 58.1844 67.5182C58.2523 66.3507 57.8606 65.2264 57.0816 64.3526L49.935 56.3355C48.3236 54.5281 45.5401 54.3666 43.7297 55.9762L40.7975 58.5834C40.4217 58.9175 39.9272 59.0844 39.4248 59.0473C38.9234 59.0095 38.4587 58.7699 38.137 58.3832L27.2205 45.261C26.58 44.4911 26.6656 43.352 27.414 42.6864L30.3499 40.0761C31.2255 39.2977 31.7449 38.226 31.8126 37.0581C31.8803 35.8908 31.4887 34.7666 30.7096 33.8926L23.5624 25.875C21.951 24.0672 19.1673 23.9062 17.3573 25.5155L13.0663 29.33C11.3676 30.8392 10.3594 32.9178 10.2276 35.1832C10.0958 37.4478 10.8552 39.6283 12.3659 41.323C12.3715 41.3294 12.3771 41.3357 12.3826 41.3421L40.4144 73.6637Z" fill="white"/>
</svg>
