<svg width="100" height="100" viewBox="0 0 100 100" fill="none" xmlns="http://www.w3.org/2000/svg">
<path d="M55.563 38.4026C54.6138 38.4026 53.8443 37.6331 53.8443 36.6839V28.248C53.8443 21.9471 48.718 16.8209 42.4173 16.8209C40.7614 16.8209 39.1606 17.1701 37.6594 17.8592C37.2044 18.0681 36.6808 18.0681 36.2256 17.8592C34.7244 17.1703 33.1236 16.8209 31.4677 16.8209C25.1668 16.8209 20.0406 21.9471 20.0406 28.248V36.6151C20.0406 37.5643 19.2711 38.3339 18.3219 38.3339C17.3727 38.3339 16.6031 37.5643 16.6031 36.6151V28.248C16.6031 20.0517 23.2714 13.3834 31.4676 13.3834C33.3604 13.3834 35.1985 13.7345 36.9424 14.4281C38.6861 13.7347 40.5242 13.3834 42.4172 13.3834C43.7687 13.3834 45.0787 13.5648 46.3242 13.9044L47.3423 13.0312L49.3865 13.5712L49.5134 15.1894C54.1374 17.7122 57.2816 22.6199 57.2816 28.248V36.6839C57.2817 37.6331 56.5122 38.4026 55.563 38.4026Z" fill="white"/>
<path d="M83.2 10H52.1565C49.5316 10 47.2675 11.5906 46.3238 13.9062C47.4456 14.2109 48.5128 14.6437 49.5128 15.1906C49.9472 14.1515 50.9706 13.4375 52.1565 13.4375H83.2C84.7782 13.4375 86.0625 14.7218 86.0625 16.2999V47.3435C86.0625 48.9216 84.7782 50.2059 83.2 50.2059H77.097C76.6204 50.2059 76.1642 50.4044 75.8392 50.7544L69.6923 57.3574C69.4502 57.6184 69.1767 57.5637 69.0345 57.5074C68.8923 57.4512 68.6533 57.3043 68.6533 56.9496V51.9247C68.6533 50.9762 67.8845 50.2059 66.9346 50.2059H52.1565C50.9222 50.2059 49.8456 49.4278 49.4519 48.2825C49.7878 47.4794 50.0472 46.6388 50.2237 45.7669H51.2456C54.8753 45.7669 57.8284 42.8122 57.8284 39.1826C57.8284 35.5514 54.8753 32.5983 51.2456 32.5983H44.1004C39.7707 32.5983 35.802 30.0577 33.9895 26.1249C33.7083 25.5155 33.0989 25.1249 32.4286 25.1249H31.5458C27.2786 25.1249 23.7693 28.4202 23.4224 32.5983H22.6396C19.0099 32.5983 16.0553 35.5514 16.0553 39.1826C16.0553 42.8122 19.0099 45.7669 22.6396 45.7669H23.6599C24.4021 49.4309 26.6286 52.5637 29.6817 54.509L29.1974 57.2371L19.0318 59.5105C18.1662 59.7043 17.5912 60.523 17.7006 61.4027L17.8803 62.8355C15.174 64.2293 13.2272 66.837 12.6959 69.873L9.52563 87.9837C9.43813 88.4837 9.5772 88.9978 9.90376 89.3869C10.2303 89.7744 10.7116 89.9994 11.2194 89.9994H62.6658C63.1736 89.9994 63.6549 89.7744 63.9814 89.3869C64.308 88.9978 64.4455 88.4837 64.358 87.9837L61.1893 69.873C60.6596 66.848 58.7081 64.2293 56.005 62.8355L56.1831 61.4027C56.294 60.523 55.7175 59.7043 54.8534 59.5105L44.6785 57.234L44.191 54.5184C45.4425 53.7215 46.555 52.7262 47.4847 51.5778C48.6472 52.8622 50.3222 53.6434 52.1565 53.6434H65.2158V56.9496C65.2158 58.6199 66.2205 60.0949 67.7767 60.7058C68.2611 60.898 68.7658 60.9902 69.2642 60.9902C70.3595 60.9902 71.4267 60.5402 72.2095 59.6996L77.8454 53.6434H83.2C86.6735 53.6434 89.5 50.8169 89.5 47.3435V16.2999C89.5 12.8265 86.6735 10 83.2 10ZM50.4941 36.0357H51.2456C52.98 36.0357 54.3909 37.4482 54.3909 39.1826C54.3909 40.9169 52.98 42.3294 51.2456 42.3294H50.4941V36.0357ZM23.3911 42.3294H22.6396C20.9052 42.3294 19.4927 40.9169 19.4927 39.1826C19.4927 37.4482 20.9052 36.0357 22.6396 36.0357H23.3911V42.3294ZM13.2647 86.5619L16.0818 70.4651C16.3506 68.9323 17.174 67.5667 18.3537 66.6089L18.4427 67.3136C18.5256 67.9777 18.9865 68.5339 19.624 68.737L21.4771 69.3292L19.4818 72.2761C19.2146 72.6714 19.124 73.1589 19.2302 73.6245L22.1958 86.5619H13.2647ZM28.9708 86.5619H25.7224L22.7474 73.5839L25.6114 69.3542C25.9146 68.9058 25.9896 68.3417 25.813 67.8292C25.6349 67.3167 25.2271 66.9183 24.7114 66.7542L21.7162 65.7964L21.3068 62.5246L28.9708 60.809V86.5619ZM55.4425 67.3136L55.53 66.612C56.7096 67.5714 57.5362 68.9386 57.8034 70.4651L60.6205 86.5619H51.6894L54.655 73.6245C54.7612 73.1589 54.6706 72.6714 54.4034 72.2761L52.4081 69.3292L54.2612 68.737C54.8987 68.5339 55.3596 67.9777 55.4425 67.3136ZM44.9128 60.809L52.5784 62.5246L52.169 65.7964L49.1738 66.7542C48.6581 66.9183 48.2503 67.3167 48.0722 67.8292C47.8956 68.3417 47.9706 68.9058 48.2738 69.3542L51.1378 73.5839L48.1613 86.5619H44.9128V60.809ZM41.4754 86.5619H32.4083V64.5199C33.8145 65.1558 35.3504 65.4964 36.9176 65.4996H36.9426C38.5176 65.4996 40.0629 65.1605 41.4754 64.5199V86.5619ZM41.4754 60.5496C38.816 62.548 35.0676 62.5465 32.4083 60.5496V58.8152L32.9067 56.0106C34.1817 56.409 35.5379 56.6246 36.9426 56.6246C38.3426 56.6246 39.6957 56.4106 40.9676 56.0137L41.4754 58.8465V60.5496ZM36.9426 53.1872C31.9801 53.1872 27.8442 49.5934 26.9927 44.8716L35.3754 42.4591C36.3989 42.1638 37.4817 42.1638 38.5067 42.4607L46.8894 44.8888C46.0316 49.6012 41.8988 53.1872 36.9426 53.1872ZM47.0566 41.3576L39.4629 39.1591C37.8145 38.6826 36.0723 38.681 34.4239 39.1545L26.8286 41.3419V33.2795C26.8286 30.7358 28.8536 28.6545 31.377 28.5655C33.9317 33.1373 38.8113 36.0357 44.1004 36.0357H47.0566V41.3576Z" fill="white"/>
<path d="M67.6782 46.9207C70.8785 46.9207 73.4822 44.317 73.4822 41.1167V26.3724C74.6702 26.0581 75.5497 24.9771 75.5497 23.6918V19.4983C75.5497 17.9678 74.3046 16.7227 72.774 16.7227H62.5825C61.052 16.7227 59.8069 17.9678 59.8069 19.4983V23.6918C59.8069 24.9773 60.6864 26.0582 61.8744 26.3724V41.1167C61.8744 44.317 64.4781 46.9207 67.6782 46.9207ZM67.6782 43.4832C66.3734 43.4832 65.3117 42.4217 65.3117 41.1167V26.4676H70.0448V41.1167C70.0448 42.4217 68.9832 43.4832 67.6782 43.4832ZM63.2444 20.1601H72.1123V23.0301H63.2444V20.1601Z" fill="white"/>
</svg>
