<svg width="100" height="100" viewBox="0 0 100 100" fill="none" xmlns="http://www.w3.org/2000/svg">
<path d="M76.0037 56.0086C76.0037 56.0086 76.0037 32.2956 76.0037 32.2922C76.0037 30.6175 75.3017 28.8894 74.0988 27.6819L58.4095 11.9242C57.192 10.7022 55.5031 10 53.7783 10H19.5094C15.9202 10 13 12.9202 13 16.5095V75.5484C13 79.1378 15.9202 82.058 19.5095 82.058H53.3336C56.5481 86.8439 62.0108 90 68.1972 90C78.0636 90 86.0905 81.9731 86.0905 72.1067C86.0903 65.0377 81.9692 58.9133 76.0037 56.0086ZM70.1469 28.5847H57.4984V15.8811L70.1469 28.5847ZM19.5094 78.6203C17.8155 78.6203 16.4373 77.2422 16.4373 75.5483V16.5095C16.4375 14.8156 17.8156 13.4375 19.5094 13.4375H53.7783C53.8733 13.4375 53.9673 13.4441 54.0609 13.4525V30.3034C54.0609 31.2527 54.8305 32.0222 55.7797 32.0222H72.5531C72.5611 32.112 72.5661 32.2022 72.5661 32.2922V54.7541C71.1672 54.4017 69.7038 54.2136 68.197 54.2136C58.3306 54.2136 50.3038 62.2405 50.3038 72.1069C50.3038 74.4039 50.7392 76.6009 51.5312 78.6203H19.5094ZM68.1972 86.5625C60.2262 86.5625 53.7414 80.0777 53.7414 72.1067C53.7414 64.1358 60.2262 57.6509 68.1972 57.6509C76.1681 57.6509 82.653 64.1358 82.653 72.1067C82.653 80.0777 76.168 86.5625 68.1972 86.5625Z" fill="white"/>
<path d="M44.6609 23.1182H25.8379C24.8887 23.1182 24.1191 22.3486 24.1191 21.3994C24.1191 20.4502 24.8887 19.6807 25.8379 19.6807H44.6609C45.6101 19.6807 46.3796 20.4502 46.3796 21.3994C46.3796 22.3486 45.6101 23.1182 44.6609 23.1182Z" fill="white"/>
<path d="M44.6609 32.6484H25.8379C24.8887 32.6484 24.1191 31.8789 24.1191 30.9297C24.1191 29.9805 24.8887 29.2109 25.8379 29.2109H44.6609C45.6101 29.2109 46.3796 29.9805 46.3796 30.9297C46.3796 31.8789 45.6101 32.6484 44.6609 32.6484Z" fill="white"/>
<path d="M63.166 42.1787H25.8379C24.8887 42.1787 24.1191 41.4092 24.1191 40.46C24.1191 39.5107 24.8887 38.7412 25.8379 38.7412H63.166C64.1152 38.7412 64.8848 39.5107 64.8848 40.46C64.8848 41.4092 64.1154 42.1787 63.166 42.1787Z" fill="white"/>
<path d="M53.6354 51.7095H25.8379C24.8887 51.7095 24.1191 50.9399 24.1191 49.9907C24.1191 49.0415 24.8887 48.272 25.8379 48.272H53.6354C54.5846 48.272 55.3541 49.0415 55.3541 49.9907C55.3541 50.9401 54.5846 51.7095 53.6354 51.7095Z" fill="white"/>
<path d="M66.1783 77.763C65.7226 77.763 65.2854 77.5819 64.963 77.2596L60.2652 72.5616C59.5941 71.8904 59.5941 70.8021 60.2652 70.1308C60.9365 69.4596 62.0246 69.4596 62.696 70.1308L66.1785 73.6135L72.8379 66.9541C73.5091 66.2829 74.5974 66.2829 75.2687 66.9541C75.9398 67.6254 75.9398 68.7136 75.2687 69.3849L67.394 77.2596C67.0715 77.5818 66.6343 77.763 66.1783 77.763Z" fill="white"/>
</svg>
